<svg width="237" height="20" viewBox="0 0 237 20" fill="none" xmlns="http://www.w3.org/2000/svg">
<path d="M7.40252 11.0071C7.38971 11.0158 7.37921 11.0275 7.37195 11.0411C7.3647 11.0548 7.36091 11.0701 7.36091 11.0855L7.36187 19.946C7.36187 19.9817 7.34385 19.9995 7.30782 19.9995H0.751839C0.741332 19.9995 0.731216 19.9956 0.723567 19.9885C0.715918 19.9814 0.711316 19.9716 0.710706 19.9613C0.700821 19.7923 0.696198 19.6217 0.696835 19.4495C0.706401 16.9821 0.707836 14.5149 0.70114 12.0479C0.699705 11.4998 0.714054 10.9153 0.711662 10.4059C0.706561 9.19549 0.70385 7.98508 0.703531 6.77468C0.703531 6.64076 0.674355 6.30452 0.795364 6.22225C3.73273 4.22362 6.66468 2.21701 9.5912 0.202435C9.69355 0.131966 9.79336 0.0675561 9.89061 0.00920413C9.90149 0.00279343 9.91397 -0.000386103 9.92659 3.74119e-05C9.93921 0.000460927 9.95145 0.00446994 9.96188 0.0115956C12.8878 2.01948 15.8132 4.01667 18.7381 6.00319C18.8486 6.07828 19.1289 6.2366 19.1293 6.38009C19.1396 10.8521 19.1432 15.3242 19.1403 19.7962C19.1403 19.8571 19.1402 19.9134 19.1399 19.9651C19.1399 19.9697 19.139 19.9742 19.1372 19.9784C19.1354 19.9827 19.1328 19.9865 19.1295 19.9898C19.1262 19.993 19.1223 19.9956 19.118 19.9973C19.1137 19.9991 19.1091 20 19.1045 20H12.5265C12.5181 20 12.5099 19.9968 12.5038 19.991C12.4977 19.9852 12.494 19.9773 12.4935 19.9689C12.4893 19.8943 12.4871 19.8168 12.4868 19.7365C12.4801 16.8747 12.4791 14.0129 12.4839 11.1511C12.4842 11.0726 12.452 11.0114 12.3873 10.9674C11.7024 10.5009 11.0178 10.0338 10.3335 9.56601C10.2254 9.49203 10.1039 9.41598 9.96905 9.33786C9.94957 9.32667 9.92732 9.32119 9.90483 9.32204C9.88234 9.32288 9.86051 9.33002 9.84183 9.34264L7.40252 11.0071ZM12.4854 4.47026C12.4854 4.31672 12.5437 4.10675 12.3954 4.00344C11.6005 3.45053 10.7971 2.9032 9.98531 2.36146C9.97064 2.35163 9.95375 2.34564 9.9362 2.34406C9.91864 2.34247 9.90099 2.34533 9.88487 2.35237C9.84852 2.36767 9.8034 2.3935 9.74951 2.42985C8.98042 2.94577 8.21339 3.46504 7.44844 3.98766C7.39232 4.02624 7.3641 4.08236 7.36378 4.15602C7.3574 5.64702 7.3574 7.14137 7.36378 8.63907C7.36376 8.64637 7.36574 8.65353 7.36952 8.65977C7.37329 8.66601 7.37872 8.67108 7.38519 8.67444C7.39166 8.6778 7.39894 8.67932 7.40622 8.67881C7.41349 8.67831 7.42049 8.67581 7.42644 8.6716L9.90209 6.97891C9.90543 6.97679 9.91011 6.97593 9.9156 6.97643C9.92109 6.97694 9.92718 6.97879 9.93318 6.98178C9.97686 7.00474 10.037 7.04268 10.1135 7.09562C10.5491 7.39822 11.2955 7.90696 12.3529 8.62185C12.38 8.64035 12.402 8.65294 12.4189 8.65964C12.4254 8.66232 12.4324 8.66341 12.4394 8.66282C12.4464 8.66222 12.4532 8.65995 12.4591 8.6562C12.4651 8.65246 12.47 8.64734 12.4736 8.64128C12.4772 8.63522 12.4792 8.62839 12.4796 8.62138C12.4863 8.51105 12.4895 8.40168 12.4892 8.29327C12.486 7.01877 12.4847 5.74443 12.4854 4.47026ZM2.64828 7.28454C2.64244 7.28854 2.63765 7.29389 2.63432 7.30014C2.63099 7.30638 2.62921 7.31334 2.62915 7.32041L2.62532 11.869C2.62531 11.877 2.62749 11.8849 2.63163 11.8917C2.63576 11.8986 2.64169 11.9042 2.64878 11.908C2.65587 11.9117 2.66385 11.9134 2.67185 11.913C2.67985 11.9125 2.68758 11.9099 2.69419 11.9053L5.40469 10.0539C5.41059 10.0498 5.41542 10.0444 5.41876 10.0381C5.42209 10.0317 5.42383 10.0247 5.42382 10.0175L5.42478 5.46846C5.42479 5.46044 5.4226 5.45258 5.41847 5.44571C5.41433 5.43884 5.4084 5.43323 5.40131 5.42949C5.39422 5.42575 5.38625 5.42402 5.37824 5.42448C5.37024 5.42494 5.36251 5.42758 5.3559 5.43211L2.64828 7.28454ZM17.1994 7.31037C17.1995 7.30197 17.1974 7.2937 17.1935 7.28628C17.1896 7.27885 17.1839 7.27251 17.1769 7.2678L14.498 5.44789C14.4903 5.44267 14.4813 5.43965 14.472 5.43916C14.4627 5.43867 14.4535 5.44072 14.4453 5.4451C14.437 5.44948 14.4302 5.45602 14.4254 5.46401C14.4206 5.472 14.4181 5.48115 14.4181 5.49046L14.4315 10.028C14.4316 10.0364 14.4337 10.0445 14.4376 10.0519C14.4415 10.0592 14.4471 10.0655 14.454 10.0701L17.1272 11.8838C17.1349 11.889 17.1438 11.892 17.1531 11.8925C17.1623 11.8931 17.1716 11.891 17.1798 11.8867C17.188 11.8824 17.1948 11.8759 17.1997 11.868C17.2045 11.8601 17.207 11.851 17.2071 11.8417L17.1994 7.31037ZM17.1985 14.2925C17.1985 14.2847 17.1966 14.277 17.1929 14.27C17.1892 14.2631 17.1839 14.2572 17.1774 14.2528L14.499 12.4253C14.4918 12.4204 14.4835 12.4176 14.4748 12.4171C14.4662 12.4166 14.4576 12.4185 14.4499 12.4225C14.4423 12.4266 14.4359 12.4326 14.4314 12.44C14.4269 12.4474 14.4244 12.4558 14.4244 12.4645L14.4282 18.0294C14.4282 18.0421 14.4332 18.0543 14.4422 18.0632C14.4512 18.0722 14.4633 18.0773 14.476 18.0773L17.1487 18.0715C17.1614 18.0715 17.1736 18.0665 17.1826 18.0575C17.1915 18.0485 17.1966 18.0364 17.1966 18.0237L17.1985 14.2925ZM5.42525 12.4731C5.4252 12.4625 5.42226 12.4521 5.41675 12.443C5.41124 12.434 5.40336 12.4266 5.39397 12.4217C5.38458 12.4168 5.37402 12.4145 5.36344 12.4151C5.35286 12.4158 5.34264 12.4193 5.3339 12.4253L2.65402 14.2576C2.64624 14.2629 2.63987 14.2701 2.63546 14.2784C2.63104 14.2867 2.62871 14.296 2.62867 14.3054L2.63058 18.0223C2.63058 18.0377 2.63673 18.0526 2.64767 18.0635C2.65861 18.0745 2.67346 18.0806 2.68893 18.0806L5.36308 18.0715C5.37855 18.0715 5.39339 18.0654 5.40434 18.0544C5.41528 18.0435 5.42143 18.0286 5.42143 18.0132L5.42525 12.4731Z" fill="white"/>
<path d="M31.7413 18.16C30.608 18.16 29.6946 17.82 29.0013 17.14C28.3213 16.4467 27.9813 15.5333 27.9813 14.4V7.58C27.9813 6.43333 28.3213 5.52667 29.0013 4.86C29.6946 4.18 30.608 3.84 31.7413 3.84C32.888 3.84 33.808 4.18 34.5013 4.86C35.1946 5.52667 35.5413 6.43333 35.5413 7.58V7.82C35.5413 7.88667 35.5146 7.94667 35.4613 8C35.4213 8.05333 35.368 8.08 35.3013 8.08L33.4413 8.16C33.2813 8.16 33.2013 8.08 33.2013 7.92V7.42C33.2013 6.95333 33.068 6.57333 32.8013 6.28C32.5346 5.98667 32.1813 5.84 31.7413 5.84C31.3146 5.84 30.968 5.98667 30.7013 6.28C30.4346 6.57333 30.3013 6.95333 30.3013 7.42V14.58C30.3013 15.0467 30.4346 15.4267 30.7013 15.72C30.968 16.0133 31.3146 16.16 31.7413 16.16C32.1813 16.16 32.5346 16.0133 32.8013 15.72C33.068 15.4267 33.2013 15.0467 33.2013 14.58V14.08C33.2013 14.0133 33.2213 13.96 33.2613 13.92C33.3146 13.8667 33.3746 13.84 33.4413 13.84L35.3013 13.92C35.368 13.92 35.4213 13.9467 35.4613 14C35.5146 14.04 35.5413 14.0933 35.5413 14.16V14.4C35.5413 15.5333 35.1946 16.4467 34.5013 17.14C33.808 17.82 32.888 18.16 31.7413 18.16Z" fill="white"/>
<path d="M40.9419 18.16C39.7953 18.16 38.8686 17.8133 38.1619 17.12C37.4686 16.4267 37.1219 15.5067 37.1219 14.36V7.64C37.1219 6.49333 37.4686 5.57333 38.1619 4.88C38.8686 4.18667 39.7953 3.84 40.9419 3.84C42.0886 3.84 43.0153 4.18667 43.7219 4.88C44.4286 5.57333 44.7819 6.49333 44.7819 7.64V14.36C44.7819 15.5067 44.4286 16.4267 43.7219 17.12C43.0153 17.8133 42.0886 18.16 40.9419 18.16ZM40.9419 16.16C41.3953 16.16 41.7619 16.0067 42.0419 15.7C42.3219 15.38 42.4619 14.9667 42.4619 14.46V7.54C42.4619 7.03333 42.3219 6.62667 42.0419 6.32C41.7619 6 41.3953 5.84 40.9419 5.84C40.4886 5.84 40.1219 6 39.8419 6.32C39.5753 6.62667 39.4419 7.03333 39.4419 7.54V14.46C39.4419 14.9667 39.5753 15.38 39.8419 15.7C40.1219 16.0067 40.4886 16.16 40.9419 16.16Z" fill="white"/>
<path d="M52.3779 4.24C52.3779 4.17333 52.3979 4.12 52.4379 4.08C52.4912 4.02667 52.5512 4 52.6179 4H54.4379C54.5045 4 54.5579 4.02667 54.5979 4.08C54.6512 4.12 54.6779 4.17333 54.6779 4.24V17.76C54.6779 17.8267 54.6512 17.8867 54.5979 17.94C54.5579 17.98 54.5045 18 54.4379 18H52.3379C52.2045 18 52.1179 17.9333 52.0779 17.8L49.0979 9.32C49.0845 9.28 49.0579 9.26667 49.0179 9.28C48.9912 9.28 48.9779 9.3 48.9779 9.34L48.9979 17.76C48.9979 17.8267 48.9712 17.8867 48.9179 17.94C48.8779 17.98 48.8245 18 48.7579 18H46.9379C46.8712 18 46.8112 17.98 46.7579 17.94C46.7179 17.8867 46.6979 17.8267 46.6979 17.76V4.24C46.6979 4.17333 46.7179 4.12 46.7579 4.08C46.8112 4.02667 46.8712 4 46.9379 4H48.9979C49.1312 4 49.2179 4.06667 49.2579 4.2L52.2579 12.62C52.2712 12.66 52.2912 12.68 52.3179 12.68C52.3579 12.6667 52.3779 12.64 52.3779 12.6V4.24Z" fill="white"/>
<path d="M60.3546 18.16C59.2212 18.16 58.3079 17.82 57.6146 17.14C56.9346 16.4467 56.5946 15.5333 56.5946 14.4V7.58C56.5946 6.43333 56.9346 5.52667 57.6146 4.86C58.3079 4.18 59.2212 3.84 60.3546 3.84C61.5012 3.84 62.4212 4.18 63.1146 4.86C63.8079 5.52667 64.1546 6.43333 64.1546 7.58V7.82C64.1546 7.88667 64.1279 7.94667 64.0746 8C64.0346 8.05333 63.9812 8.08 63.9146 8.08L62.0546 8.16C61.8946 8.16 61.8146 8.08 61.8146 7.92V7.42C61.8146 6.95333 61.6812 6.57333 61.4146 6.28C61.1479 5.98667 60.7946 5.84 60.3546 5.84C59.9279 5.84 59.5812 5.98667 59.3146 6.28C59.0479 6.57333 58.9146 6.95333 58.9146 7.42V14.58C58.9146 15.0467 59.0479 15.4267 59.3146 15.72C59.5812 16.0133 59.9279 16.16 60.3546 16.16C60.7946 16.16 61.1479 16.0133 61.4146 15.72C61.6812 15.4267 61.8146 15.0467 61.8146 14.58V14.08C61.8146 14.0133 61.8346 13.96 61.8746 13.92C61.9279 13.8667 61.9879 13.84 62.0546 13.84L63.9146 13.92C63.9812 13.92 64.0346 13.9467 64.0746 14C64.1279 14.04 64.1546 14.0933 64.1546 14.16V14.4C64.1546 15.5333 63.8079 16.4467 63.1146 17.14C62.4212 17.82 61.5012 18.16 60.3546 18.16Z" fill="white"/>
<path d="M71.5152 18C71.3819 18 71.2952 17.9333 71.2552 17.8L69.5552 12.06C69.5285 12.0067 69.4952 11.98 69.4552 11.98H68.3952C68.3285 11.98 68.2952 12.0133 68.2952 12.08V17.76C68.2952 17.8267 68.2685 17.8867 68.2152 17.94C68.1752 17.98 68.1219 18 68.0552 18H66.2152C66.1485 18 66.0885 17.98 66.0352 17.94C65.9952 17.8867 65.9752 17.8267 65.9752 17.76V4.24C65.9752 4.17333 65.9952 4.12 66.0352 4.08C66.0885 4.02667 66.1485 4 66.2152 4H69.9752C70.6819 4 71.3019 4.17333 71.8352 4.52C72.3819 4.85333 72.8019 5.33333 73.0952 5.96C73.4019 6.57333 73.5552 7.28 73.5552 8.08C73.5552 8.90667 73.3952 9.62 73.0752 10.22C72.7552 10.82 72.3085 11.2733 71.7352 11.58C71.6819 11.5933 71.6619 11.6333 71.6752 11.7L73.6352 17.72C73.6485 17.7467 73.6552 17.78 73.6552 17.82C73.6552 17.94 73.5819 18 73.4352 18H71.5152ZM68.3952 6C68.3285 6 68.2952 6.03333 68.2952 6.1V10.08C68.2952 10.1467 68.3285 10.18 68.3952 10.18H69.6152C70.0952 10.18 70.4819 9.99333 70.7752 9.62C71.0819 9.24667 71.2352 8.74 71.2352 8.1C71.2352 7.46 71.0819 6.95333 70.7752 6.58C70.4819 6.19333 70.0952 6 69.6152 6H68.3952Z" fill="white"/>
<path d="M82.174 5.76C82.174 5.82667 82.1473 5.88667 82.094 5.94C82.054 5.98 82.0006 6 81.934 6H77.614C77.5473 6 77.514 6.03333 77.514 6.1V9.88C77.514 9.94667 77.5473 9.98 77.614 9.98H80.174C80.2406 9.98 80.294 10.0067 80.334 10.06C80.3873 10.1 80.414 10.1533 80.414 10.22V11.76C80.414 11.8267 80.3873 11.8867 80.334 11.94C80.294 11.98 80.2406 12 80.174 12H77.614C77.5473 12 77.514 12.0333 77.514 12.1V15.9C77.514 15.9667 77.5473 16 77.614 16H81.934C82.0006 16 82.054 16.0267 82.094 16.08C82.1473 16.12 82.174 16.1733 82.174 16.24V17.76C82.174 17.8267 82.1473 17.8867 82.094 17.94C82.054 17.98 82.0006 18 81.934 18H75.434C75.3673 18 75.3073 17.98 75.254 17.94C75.214 17.8867 75.194 17.8267 75.194 17.76V4.24C75.194 4.17333 75.214 4.12 75.254 4.08C75.3073 4.02667 75.3673 4 75.434 4H81.934C82.0006 4 82.054 4.02667 82.094 4.08C82.1473 4.12 82.174 4.17333 82.174 4.24V5.76Z" fill="white"/>
<path d="M91.0654 4C91.132 4 91.1854 4.02667 91.2254 4.08C91.2787 4.12 91.3054 4.17333 91.3054 4.24V5.76C91.3054 5.82667 91.2787 5.88667 91.2254 5.94C91.1854 5.98 91.132 6 91.0654 6H88.5254C88.4587 6 88.4254 6.03333 88.4254 6.1V17.76C88.4254 17.8267 88.3987 17.8867 88.3454 17.94C88.3054 17.98 88.252 18 88.1854 18H86.3454C86.2787 18 86.2187 17.98 86.1654 17.94C86.1254 17.8867 86.1054 17.8267 86.1054 17.76V6.1C86.1054 6.03333 86.072 6 86.0054 6H83.6054C83.5387 6 83.4787 5.98 83.4254 5.94C83.3854 5.88667 83.3654 5.82667 83.3654 5.76V4.24C83.3654 4.17333 83.3854 4.12 83.4254 4.08C83.4787 4.02667 83.5387 4 83.6054 4H91.0654Z" fill="white"/>
<path d="M99.9083 5.76C99.9083 5.82667 99.8817 5.88667 99.8283 5.94C99.7883 5.98 99.735 6 99.6683 6H95.3483C95.2817 6 95.2483 6.03333 95.2483 6.1V9.88C95.2483 9.94667 95.2817 9.98 95.3483 9.98H97.9083C97.975 9.98 98.0283 10.0067 98.0683 10.06C98.1217 10.1 98.1483 10.1533 98.1483 10.22V11.76C98.1483 11.8267 98.1217 11.8867 98.0683 11.94C98.0283 11.98 97.975 12 97.9083 12H95.3483C95.2817 12 95.2483 12.0333 95.2483 12.1V15.9C95.2483 15.9667 95.2817 16 95.3483 16H99.6683C99.735 16 99.7883 16.0267 99.8283 16.08C99.8817 16.12 99.9083 16.1733 99.9083 16.24V17.76C99.9083 17.8267 99.8817 17.8867 99.8283 17.94C99.7883 17.98 99.735 18 99.6683 18H93.1683C93.1017 18 93.0417 17.98 92.9883 17.94C92.9483 17.8867 92.9283 17.8267 92.9283 17.76V4.24C92.9283 4.17333 92.9483 4.12 92.9883 4.08C93.0417 4.02667 93.1017 4 93.1683 4H99.6683C99.735 4 99.7883 4.02667 99.8283 4.08C99.8817 4.12 99.9083 4.17333 99.9083 4.24V5.76Z" fill="white"/>
<path d="M112.604 5.76C112.604 5.82667 112.577 5.88667 112.524 5.94C112.484 5.98 112.43 6 112.364 6H108.044C107.977 6 107.944 6.03333 107.944 6.1V9.88C107.944 9.94667 107.977 9.98 108.044 9.98H110.604C110.67 9.98 110.724 10.0067 110.764 10.06C110.817 10.1 110.844 10.1533 110.844 10.22V11.76C110.844 11.8267 110.817 11.8867 110.764 11.94C110.724 11.98 110.67 12 110.604 12H108.044C107.977 12 107.944 12.0333 107.944 12.1V15.9C107.944 15.9667 107.977 16 108.044 16H112.364C112.43 16 112.484 16.0267 112.524 16.08C112.577 16.12 112.604 16.1733 112.604 16.24V17.76C112.604 17.8267 112.577 17.8867 112.524 17.94C112.484 17.98 112.43 18 112.364 18H105.864C105.797 18 105.737 17.98 105.684 17.94C105.644 17.8867 105.624 17.8267 105.624 17.76V4.24C105.624 4.17333 105.644 4.12 105.684 4.08C105.737 4.02667 105.797 4 105.864 4H112.364C112.43 4 112.484 4.02667 112.524 4.08C112.577 4.12 112.604 4.17333 112.604 4.24V5.76Z" fill="white"/>
<path d="M114.035 18C113.942 18 113.882 17.9733 113.855 17.92C113.828 17.8667 113.828 17.8 113.855 17.72L116.595 11.06C116.608 11.02 116.608 10.98 116.595 10.94L113.855 4.28C113.842 4.25333 113.835 4.21333 113.835 4.16C113.835 4.05333 113.902 4 114.035 4H115.935C116.068 4 116.155 4.06667 116.195 4.2L117.795 8.54C117.808 8.58 117.828 8.6 117.855 8.6C117.882 8.6 117.902 8.58 117.915 8.54L119.495 4.2C119.535 4.06667 119.622 4 119.755 4H121.635C121.728 4 121.788 4.02667 121.815 4.08C121.842 4.13333 121.842 4.2 121.815 4.28L119.075 10.94C119.062 10.98 119.062 11.02 119.075 11.06L121.815 17.72C121.828 17.7467 121.835 17.7867 121.835 17.84C121.835 17.9467 121.768 18 121.635 18H119.775C119.628 18 119.535 17.9333 119.495 17.8L117.915 13.48C117.902 13.44 117.882 13.42 117.855 13.42C117.828 13.42 117.808 13.44 117.795 13.48L116.195 17.8C116.155 17.9333 116.062 18 115.915 18H114.035Z" fill="white"/>
<path d="M127.494 3.98C128.201 3.98 128.821 4.15333 129.354 4.5C129.901 4.84667 130.321 5.33333 130.614 5.96C130.921 6.58667 131.074 7.3 131.074 8.1C131.074 9.3 130.754 10.2667 130.114 11C129.488 11.7333 128.654 12.1 127.614 12.1H125.914C125.848 12.1 125.814 12.1333 125.814 12.2V17.76C125.814 17.8267 125.788 17.8867 125.734 17.94C125.694 17.98 125.641 18 125.574 18H123.734C123.668 18 123.608 17.98 123.554 17.94C123.514 17.8867 123.494 17.8267 123.494 17.76V4.22C123.494 4.15333 123.514 4.1 123.554 4.06C123.608 4.00667 123.668 3.98 123.734 3.98H127.494ZM127.114 10.28C127.608 10.28 128.001 10.0933 128.294 9.72C128.601 9.33333 128.754 8.81333 128.754 8.16C128.754 7.49333 128.601 6.96667 128.294 6.58C128.001 6.18 127.608 5.98 127.114 5.98H125.914C125.848 5.98 125.814 6.01333 125.814 6.08V10.18C125.814 10.2467 125.848 10.28 125.914 10.28H127.114Z" fill="white"/>
<path d="M139.635 5.76C139.635 5.82667 139.608 5.88667 139.555 5.94C139.515 5.98 139.462 6 139.395 6H135.075C135.008 6 134.975 6.03333 134.975 6.1V9.88C134.975 9.94667 135.008 9.98 135.075 9.98H137.635C137.702 9.98 137.755 10.0067 137.795 10.06C137.848 10.1 137.875 10.1533 137.875 10.22V11.76C137.875 11.8267 137.848 11.8867 137.795 11.94C137.755 11.98 137.702 12 137.635 12H135.075C135.008 12 134.975 12.0333 134.975 12.1V15.9C134.975 15.9667 135.008 16 135.075 16H139.395C139.462 16 139.515 16.0267 139.555 16.08C139.608 16.12 139.635 16.1733 139.635 16.24V17.76C139.635 17.8267 139.608 17.8867 139.555 17.94C139.515 17.98 139.462 18 139.395 18H132.895C132.828 18 132.768 17.98 132.715 17.94C132.675 17.8867 132.655 17.8267 132.655 17.76V4.24C132.655 4.17333 132.675 4.12 132.715 4.08C132.768 4.02667 132.828 4 132.895 4H139.395C139.462 4 139.515 4.02667 139.555 4.08C139.608 4.12 139.635 4.17333 139.635 4.24V5.76Z" fill="white"/>
<path d="M146.886 18C146.753 18 146.666 17.9333 146.626 17.8L144.926 12.06C144.9 12.0067 144.866 11.98 144.826 11.98H143.766C143.7 11.98 143.666 12.0133 143.666 12.08V17.76C143.666 17.8267 143.64 17.8867 143.586 17.94C143.546 17.98 143.493 18 143.426 18H141.586C141.52 18 141.46 17.98 141.406 17.94C141.366 17.8867 141.346 17.8267 141.346 17.76V4.24C141.346 4.17333 141.366 4.12 141.406 4.08C141.46 4.02667 141.52 4 141.586 4H145.346C146.053 4 146.673 4.17333 147.206 4.52C147.753 4.85333 148.173 5.33333 148.466 5.96C148.773 6.57333 148.926 7.28 148.926 8.08C148.926 8.90667 148.766 9.62 148.446 10.22C148.126 10.82 147.68 11.2733 147.106 11.58C147.053 11.5933 147.033 11.6333 147.046 11.7L149.006 17.72C149.02 17.7467 149.026 17.78 149.026 17.82C149.026 17.94 148.953 18 148.806 18H146.886ZM143.766 6C143.7 6 143.666 6.03333 143.666 6.1V10.08C143.666 10.1467 143.7 10.18 143.766 10.18H144.986C145.466 10.18 145.853 9.99333 146.146 9.62C146.453 9.24667 146.606 8.74 146.606 8.1C146.606 7.46 146.453 6.95333 146.146 6.58C145.853 6.19333 145.466 6 144.986 6H143.766Z" fill="white"/>
<path d="M157.745 4C157.812 4 157.865 4.02667 157.905 4.08C157.958 4.12 157.985 4.17333 157.985 4.24V5.76C157.985 5.82667 157.958 5.88667 157.905 5.94C157.865 5.98 157.812 6 157.745 6H155.205C155.138 6 155.105 6.03333 155.105 6.1V17.76C155.105 17.8267 155.078 17.8867 155.025 17.94C154.985 17.98 154.932 18 154.865 18H153.025C152.958 18 152.898 17.98 152.845 17.94C152.805 17.8867 152.785 17.8267 152.785 17.76V6.1C152.785 6.03333 152.752 6 152.685 6H150.285C150.218 6 150.158 5.98 150.105 5.94C150.065 5.88667 150.045 5.82667 150.045 5.76V4.24C150.045 4.17333 150.065 4.12 150.105 4.08C150.158 4.02667 150.218 4 150.285 4H157.745Z" fill="white"/>
<path d="M162.908 18.16C161.801 18.16 160.908 17.8267 160.228 17.16C159.548 16.4933 159.208 15.62 159.208 14.54V14.02C159.208 13.9533 159.228 13.9 159.268 13.86C159.321 13.8067 159.381 13.78 159.448 13.78H161.268C161.335 13.78 161.388 13.8067 161.428 13.86C161.481 13.9 161.508 13.9533 161.508 14.02V14.42C161.508 14.94 161.635 15.36 161.888 15.68C162.155 16 162.495 16.16 162.908 16.16C163.321 16.16 163.661 16.0133 163.928 15.72C164.195 15.4133 164.328 15.0133 164.328 14.52C164.328 14.1733 164.255 13.8733 164.108 13.62C163.961 13.3667 163.755 13.1267 163.488 12.9C163.221 12.6733 162.795 12.3467 162.208 11.92C161.541 11.44 161.001 11.0133 160.588 10.64C160.188 10.2667 159.848 9.82 159.568 9.3C159.301 8.76667 159.168 8.15333 159.168 7.46C159.168 6.35333 159.501 5.47333 160.168 4.82C160.835 4.16667 161.715 3.84 162.808 3.84C163.915 3.84 164.808 4.18667 165.488 4.88C166.168 5.56 166.508 6.46667 166.508 7.6V8.08C166.508 8.14667 166.481 8.20667 166.428 8.26C166.388 8.3 166.335 8.32 166.268 8.32H164.468C164.401 8.32 164.341 8.3 164.288 8.26C164.248 8.20667 164.228 8.14667 164.228 8.08V7.56C164.228 7.04 164.095 6.62667 163.828 6.32C163.575 6 163.235 5.84 162.808 5.84C162.408 5.84 162.081 5.98667 161.828 6.28C161.575 6.56 161.448 6.95333 161.448 7.46C161.448 7.94 161.581 8.34667 161.848 8.68C162.128 9.01333 162.668 9.47333 163.468 10.06C164.281 10.66 164.895 11.1533 165.308 11.54C165.721 11.9133 166.041 12.3267 166.268 12.78C166.495 13.2333 166.608 13.7733 166.608 14.4C166.608 15.5333 166.268 16.4467 165.588 17.14C164.908 17.82 164.015 18.16 162.908 18.16Z" fill="white"/>
<path d="M175.804 18.16C174.67 18.16 173.757 17.82 173.064 17.14C172.384 16.4467 172.044 15.5333 172.044 14.4V7.58C172.044 6.43333 172.384 5.52667 173.064 4.86C173.757 4.18 174.67 3.84 175.804 3.84C176.95 3.84 177.87 4.18 178.564 4.86C179.257 5.52667 179.604 6.43333 179.604 7.58V7.82C179.604 7.88667 179.577 7.94667 179.524 8C179.484 8.05333 179.43 8.08 179.364 8.08L177.504 8.16C177.344 8.16 177.264 8.08 177.264 7.92V7.42C177.264 6.95333 177.13 6.57333 176.864 6.28C176.597 5.98667 176.244 5.84 175.804 5.84C175.377 5.84 175.03 5.98667 174.764 6.28C174.497 6.57333 174.364 6.95333 174.364 7.42V14.58C174.364 15.0467 174.497 15.4267 174.764 15.72C175.03 16.0133 175.377 16.16 175.804 16.16C176.244 16.16 176.597 16.0133 176.864 15.72C177.13 15.4267 177.264 15.0467 177.264 14.58V14.08C177.264 14.0133 177.284 13.96 177.324 13.92C177.377 13.8667 177.437 13.84 177.504 13.84L179.364 13.92C179.43 13.92 179.484 13.9467 179.524 14C179.577 14.04 179.604 14.0933 179.604 14.16V14.4C179.604 15.5333 179.257 16.4467 178.564 17.14C177.87 17.82 176.95 18.16 175.804 18.16Z" fill="white"/>
<path d="M185.004 18.16C183.858 18.16 182.931 17.8133 182.224 17.12C181.531 16.4267 181.184 15.5067 181.184 14.36V7.64C181.184 6.49333 181.531 5.57333 182.224 4.88C182.931 4.18667 183.858 3.84 185.004 3.84C186.151 3.84 187.078 4.18667 187.784 4.88C188.491 5.57333 188.844 6.49333 188.844 7.64V14.36C188.844 15.5067 188.491 16.4267 187.784 17.12C187.078 17.8133 186.151 18.16 185.004 18.16ZM185.004 16.16C185.458 16.16 185.824 16.0067 186.104 15.7C186.384 15.38 186.524 14.9667 186.524 14.46V7.54C186.524 7.03333 186.384 6.62667 186.104 6.32C185.824 6 185.458 5.84 185.004 5.84C184.551 5.84 184.184 6 183.904 6.32C183.638 6.62667 183.504 7.03333 183.504 7.54V14.46C183.504 14.9667 183.638 15.38 183.904 15.7C184.184 16.0067 184.551 16.16 185.004 16.16Z" fill="white"/>
<path d="M197.04 4.16C197.107 4.05333 197.207 4 197.34 4H199.18C199.247 4 199.3 4.02667 199.34 4.08C199.394 4.12 199.42 4.17333 199.42 4.24V17.76C199.42 17.8267 199.394 17.8867 199.34 17.94C199.3 17.98 199.247 18 199.18 18H197.34C197.274 18 197.214 17.98 197.16 17.94C197.12 17.8867 197.1 17.8267 197.1 17.76V8.32C197.1 8.26667 197.087 8.24 197.06 8.24C197.034 8.24 197.007 8.26 196.98 8.3L195.24 11.46C195.174 11.5667 195.114 11.62 195.06 11.62C195.007 11.62 194.947 11.5667 194.88 11.46L193.14 8.3C193.114 8.26 193.087 8.24 193.06 8.24C193.034 8.24 193.02 8.26667 193.02 8.32V17.76C193.02 17.8267 192.994 17.8867 192.94 17.94C192.9 17.98 192.847 18 192.78 18H190.94C190.874 18 190.814 17.98 190.76 17.94C190.72 17.8867 190.7 17.8267 190.7 17.76V4.24C190.7 4.17333 190.72 4.12 190.76 4.08C190.814 4.02667 190.874 4 190.94 4H192.78C192.914 4 193.014 4.05333 193.08 4.16L195.02 7.58C195.06 7.63333 195.1 7.63333 195.14 7.58L197.04 4.16Z" fill="white"/>
<path d="M205.502 3.98C206.209 3.98 206.829 4.15333 207.362 4.5C207.909 4.84667 208.329 5.33333 208.622 5.96C208.929 6.58667 209.082 7.3 209.082 8.1C209.082 9.3 208.762 10.2667 208.122 11C207.495 11.7333 206.662 12.1 205.622 12.1H203.922C203.855 12.1 203.822 12.1333 203.822 12.2V17.76C203.822 17.8267 203.795 17.8867 203.742 17.94C203.702 17.98 203.649 18 203.582 18H201.742C201.675 18 201.615 17.98 201.562 17.94C201.522 17.8867 201.502 17.8267 201.502 17.76V4.22C201.502 4.15333 201.522 4.1 201.562 4.06C201.615 4.00667 201.675 3.98 201.742 3.98H205.502ZM205.122 10.28C205.615 10.28 206.009 10.0933 206.302 9.72C206.609 9.33333 206.762 8.81333 206.762 8.16C206.762 7.49333 206.609 6.96667 206.302 6.58C206.009 6.18 205.615 5.98 205.122 5.98H203.922C203.855 5.98 203.822 6.01333 203.822 6.08V10.18C203.822 10.2467 203.855 10.28 203.922 10.28H205.122Z" fill="white"/>
<path d="M215.718 18C215.558 18 215.471 17.9267 215.458 17.78L215.078 15.68C215.078 15.6133 215.038 15.58 214.958 15.58H212.038C211.958 15.58 211.918 15.6133 211.918 15.68L211.538 17.78C211.524 17.9267 211.438 18 211.278 18H209.458C209.271 18 209.198 17.9133 209.238 17.74L212.198 4.22C212.224 4.07333 212.311 4 212.458 4H214.578C214.724 4 214.811 4.07333 214.838 4.22L217.798 17.74V17.82C217.798 17.94 217.724 18 217.578 18H215.718ZM212.278 13.66C212.264 13.7267 212.298 13.76 212.378 13.76H214.598C214.678 13.76 214.711 13.7267 214.698 13.66L213.538 7.34C213.524 7.3 213.504 7.28 213.478 7.28C213.451 7.28 213.431 7.3 213.418 7.34L212.278 13.66Z" fill="white"/>
<path d="M224.839 4.24C224.839 4.17333 224.859 4.12 224.899 4.08C224.952 4.02667 225.012 4 225.079 4H226.899C226.965 4 227.019 4.02667 227.059 4.08C227.112 4.12 227.139 4.17333 227.139 4.24V17.76C227.139 17.8267 227.112 17.8867 227.059 17.94C227.019 17.98 226.965 18 226.899 18H224.799C224.665 18 224.579 17.9333 224.539 17.8L221.559 9.32C221.545 9.28 221.519 9.26667 221.479 9.28C221.452 9.28 221.439 9.3 221.439 9.34L221.459 17.76C221.459 17.8267 221.432 17.8867 221.379 17.94C221.339 17.98 221.285 18 221.219 18H219.399C219.332 18 219.272 17.98 219.219 17.94C219.179 17.8867 219.159 17.8267 219.159 17.76V4.24C219.159 4.17333 219.179 4.12 219.219 4.08C219.272 4.02667 219.332 4 219.399 4H221.459C221.592 4 221.679 4.06667 221.719 4.2L224.719 12.62C224.732 12.66 224.752 12.68 224.779 12.68C224.819 12.6667 224.839 12.64 224.839 12.6V4.24Z" fill="white"/>
<path d="M231.856 17.98C231.789 17.98 231.729 17.96 231.676 17.92C231.636 17.8667 231.616 17.8067 231.616 17.74V12.28L231.596 12.16L228.816 4.28C228.802 4.25333 228.796 4.22 228.796 4.18C228.796 4.06 228.869 4 229.016 4H230.936C231.082 4 231.176 4.06667 231.216 4.2L232.716 9.34C232.729 9.38 232.749 9.4 232.776 9.4C232.802 9.4 232.822 9.38 232.836 9.34L234.336 4.2C234.376 4.06667 234.469 4 234.616 4H236.536C236.616 4 236.676 4.02667 236.716 4.08C236.756 4.12 236.762 4.18667 236.736 4.28L233.956 12.16L233.936 12.28V17.74C233.936 17.8067 233.909 17.8667 233.856 17.92C233.816 17.96 233.762 17.98 233.696 17.98H231.856Z" fill="white"/>
</svg>
