<svg width="150" height="167" viewBox="0 0 150 167" fill="none" xmlns="http://www.w3.org/2000/svg">
<path d="M75 78L16.5 51L75 18L133.5 51L75 78Z" fill="white"/>
<path d="M75 78L16.5 51V116.5L75 149.5V78Z" fill="#F2F2F2"/>
<path d="M75 78L133.5 51V116.5L75 149.5V78Z" fill="#F9F9F9"/>
<path d="M150 121.075C150 124.248 148.25 127.003 145.583 128.423L79.75 165.497C78.4167 166.499 76.75 167 75 167C73.25 167 71.5834 166.499 70.25 165.497L4.41671 128.423C3.08011 127.72 1.96154 126.664 1.18278 125.368C0.404021 124.072 -0.00506896 122.587 4.74094e-05 121.075V45.925C4.74094e-05 42.752 1.75005 39.9965 4.41671 38.577L70.25 1.503C71.5834 0.501001 73.25 0 75 0C76.75 0 78.4167 0.501001 79.75 1.503L145.583 38.577C148.25 39.9965 150 42.752 150 45.925V121.075ZM75 17.9525L16.6667 50.8515V116.148L75 149.048L133.333 116.148V50.8515L75 17.9525Z" fill="black"/>
<path d="M54.8352 77.8012H47.3693C47.2329 76.8333 46.9545 75.9736 46.5341 75.2221C46.1136 74.4593 45.5738 73.8102 44.9148 73.2751C44.2557 72.7399 43.4943 72.33 42.6307 72.0454C41.7784 71.7607 40.8523 71.6184 39.8523 71.6184C38.0454 71.6184 36.4716 72.0681 35.1307 72.9677C33.7898 73.8558 32.75 75.1538 32.0114 76.8618C31.2727 78.5584 30.9034 80.6193 30.9034 83.0446C30.9034 85.5382 31.2727 87.6333 32.0114 89.3299C32.7614 91.0264 33.8068 92.3074 35.1477 93.1728C36.4886 94.0381 38.0398 94.4708 39.8011 94.4708C40.7898 94.4708 41.7045 94.3399 42.5454 94.078C43.3977 93.8161 44.1534 93.4346 44.8125 92.9336C45.4716 92.4213 46.017 91.8007 46.4488 91.072C46.892 90.3432 47.1989 89.512 47.3693 88.5784L54.8352 88.6125C54.642 90.218 54.1591 91.7665 53.3863 93.2582C52.625 94.7384 51.5966 96.0649 50.3011 97.2377C49.017 98.3991 47.4829 99.3214 45.6988 100.005C43.9261 100.676 41.9204 101.012 39.6818 101.012C36.5682 101.012 33.7841 100.306 31.3295 98.8944C28.8864 97.4825 26.9545 95.4386 25.5341 92.7628C24.125 90.087 23.4204 86.8476 23.4204 83.0446C23.4204 79.2302 24.1364 75.985 25.5682 73.3092C27 70.6334 28.9432 68.5953 31.3977 67.1948C33.8523 65.7829 36.6136 65.0769 39.6818 65.0769C41.7045 65.0769 43.5795 65.3616 45.3068 65.9309C47.0454 66.5002 48.5852 67.3314 49.9261 68.4245C51.267 69.5062 52.3579 70.8327 53.1988 72.404C54.0511 73.9753 54.5966 75.7744 54.8352 77.8012Z" fill="black"/>
<path d="M89.3267 65.5551V100.534H82.9517L67.7642 78.5185H67.5085V100.534H60.1278V65.5551H66.6051L81.6733 87.5536H81.9801V65.5551H89.3267Z" fill="black"/>
<path d="M95.4247 100.534V65.5551H102.805V79.9873H117.788V65.5551H125.152V100.534H117.788V86.0847H102.805V100.534H95.4247Z" fill="black"/>
</svg>