<svg width="16" height="16" viewBox="0 0 16 16" fill="none" xmlns="http://www.w3.org/2000/svg">
<rect width="16" height="16" rx="1" fill="#080808"/>
<path d="M4.85973 7.62678H3.93004C3.90353 7.47431 3.85464 7.33925 3.78338 7.22159C3.71212 7.10227 3.62346 7.00118 3.5174 6.91832C3.41134 6.83546 3.29036 6.77332 3.15447 6.73189C3.02024 6.6888 2.87524 6.66726 2.71946 6.66726C2.44271 6.66726 2.19744 6.73686 1.98366 6.87607C1.76989 7.01361 1.60251 7.21579 1.48153 7.4826C1.36056 7.74775 1.30007 8.07173 1.30007 8.45455C1.30007 8.84399 1.36056 9.17211 1.48153 9.43892C1.60417 9.70407 1.77154 9.90459 1.98366 10.0405C2.19744 10.1747 2.44188 10.2418 2.71697 10.2418C2.86944 10.2418 3.01196 10.2219 3.14453 10.1822C3.27876 10.1407 3.39891 10.0803 3.50497 10.0007C3.61269 9.92116 3.70301 9.82339 3.77592 9.70739C3.8505 9.59138 3.90187 9.45881 3.93004 9.30966L4.85973 9.31463C4.82493 9.55658 4.74953 9.78362 4.63352 9.99574C4.51918 10.2079 4.3692 10.3951 4.18359 10.5575C3.99799 10.7183 3.7809 10.8442 3.53232 10.9354C3.28374 11.0249 3.00781 11.0696 2.70455 11.0696C2.2571 11.0696 1.85772 10.966 1.50639 10.7589C1.15507 10.5517 0.878314 10.2526 0.676136 9.86151C0.473958 9.47041 0.372869 9.00142 0.372869 8.45455C0.372869 7.90601 0.474787 7.43703 0.678622 7.04759C0.882457 6.65649 1.16004 6.35736 1.51136 6.15021C1.86269 5.94306 2.26042 5.83949 2.70455 5.83949C2.98793 5.83949 3.25142 5.87926 3.49503 5.95881C3.73864 6.03835 3.95573 6.15518 4.14631 6.3093C4.33688 6.46177 4.49349 6.64903 4.61612 6.87109C4.74041 7.0915 4.82161 7.34339 4.85973 7.62678ZM9.88787 5.90909V11H9.06756L6.66877 7.53232H6.62651V11H5.70428V5.90909H6.52956L8.92587 9.37926H8.97061V5.90909H9.88787ZM10.8928 11V5.90909H11.815V8.06428H14.174V5.90909H15.0987V11H14.174V8.83736H11.815V11H10.8928Z" fill="#E0FFFF"/>
</svg>
