<svg width="80" height="80" viewBox="0 0 80 80" fill="none" xmlns="http://www.w3.org/2000/svg">
<path d="M12.08 19.8099L8.45 23.4499M8.45 23.4499L21.3101 36.3098C22.3101 37.3098 23.9401 37.3098 24.9501 36.3098C25.9501 35.3098 25.9501 33.6798 24.9501 32.6698L12.0901 19.8098L7.19006 18.5498L8.45 23.4499ZM24.1601 31.8798L20.5201 35.5198M10.2601 21.6298L22.2701 33.6298M11.27 28.6099L6.5 33.3899L10.87 37.7499L15.64 32.9799M17.25 22.6399L22.02 17.8699L26.39 22.2299L21.61 26.9999M24.87 23.7398L23.28 22.1598M23.08 25.5298L22.01 24.4498M14.17 34.4498L12.58 32.8598M12.38 36.2298L11.31 35.1598" stroke="#007BFF" stroke-linecap="round" stroke-linejoin="round"/>
<path d="M70.99 23.7699C70.99 23.7699 70.1 23.3399 69.55 22.3299L69.35 20.5299L67.87 19.0499C66.05 17.2299 63.31 16.6799 60.92 17.6599L58.89 18.4999C58.89 18.4999 64.32 18.3599 64.42 22.0799M68.34 26.4199C68.34 26.4199 67.69 25.4499 66.68 24.8999L61.4 30.1799L58.86 27.6399L64.41 22.0899M67.4499 27.31L69.1599 29.02L73.4999 24.68L71.7899 22.97L67.4499 27.31ZM58.5373 27.3169L61.7334 30.5131L53.828 38.4185L50.6318 35.2224L58.5373 27.3169Z" stroke="#007BFF" stroke-linecap="round" stroke-linejoin="round"/>
<path d="M24.8701 16.7799C25.0101 16.6899 25.1501 16.5999 25.2901 16.5099L27.0601 15.4799C30.7101 13.4999 35.2201 11.8999 39.3401 11.8999C47.4701 11.8999 54.6901 15.7699 59.2801 21.7699L59.8901 22.5999C59.9901 22.7399 60.0801 22.8699 60.1701 23.0099" stroke="#EDEDED" stroke-linecap="round" stroke-linejoin="round"/>
<path d="M14.29 38.3401C14.29 38.5101 14.31 38.6701 14.32 38.8401L14.54 40.7901C15.72 48.5301 20.45 55.1101 27 58.8101L27.87 59.2801C28.02 59.3601 28.17 59.4301 28.32 59.5001" stroke="#EDEDED" stroke-linecap="round" stroke-linejoin="round"/>
<path d="M63.8599 31.72C63.8999 31.88 63.9299 32.05 63.9599 32.21L64.2599 34.2C64.3599 35.11 64.4099 36.04 64.4099 36.98C64.4099 46.34 59.2799 54.51 51.6799 58.81L50.7999 59.29C50.6499 59.37 50.4999 59.44 50.3599 59.51" stroke="#EDEDED" stroke-linecap="round" stroke-linejoin="round"/>
<path d="M44.7797 55.2299L47.9997 58.3899V63.3499L43.3597 59.7699M39.3397 40.3499C39.3397 40.3499 30.2297 45.9299 35.5797 60.5299H43.0897C48.4397 45.9299 39.3297 40.3499 39.3297 40.3499M33.8897 55.2299L30.6797 58.3899V63.3499L35.3097 59.7699M44.4397 64.0099V65.6299M41.8897 64.3799V66.8799M34.2397 64.0099V65.6299M36.7897 64.3799V66.8799M39.3397 64.6699V68.0999M41.1899 48.59C41.1899 49.6117 40.3616 50.44 39.3399 50.44C38.3181 50.44 37.4899 49.6117 37.4899 48.59C37.4899 47.5682 38.3181 46.74 39.3399 46.74C40.3616 46.74 41.1899 47.5682 41.1899 48.59Z" stroke="#007BFF" stroke-linecap="round" stroke-linejoin="round"/>
</svg>
