<?xml version="1.0" encoding="UTF-8"?>
<svg id="Layer_1" data-name="Layer 1" xmlns="http://www.w3.org/2000/svg" viewBox="0 0 80 80">
  <defs>
    <style>
      .cls-1 {
        stroke-dasharray: 0 0 1.01 2.02;
      }

      .cls-1, .cls-2, .cls-3, .cls-4, .cls-5 {
        fill: none;
        stroke-linecap: round;
        stroke-linejoin: round;
      }

      .cls-1, .cls-2, .cls-4, .cls-5 {
        stroke: #ededed;
      }

      .cls-3 {
        stroke: #007bff;
      }

      .cls-4 {
        stroke-dasharray: 0 0 .99 1.97;
      }

      .cls-5 {
        stroke-dasharray: 0 0 1.03 2.05;
      }
    </style>
  </defs>
  <g>
    <g>
      <line class="cls-3" x1="12.08" y1="19.81" x2="8.45" y2="23.45"/>
      <g>
        <path class="cls-3" d="m8.45,23.45l12.86,12.86c1,1,2.63,1,3.64,0h0c1-1,1-2.63,0-3.64l-12.86-12.86-4.9-1.26,1.26,4.9Z"/>
        <line class="cls-3" x1="24.16" y1="31.88" x2="20.52" y2="35.52"/>
        <line class="cls-3" x1="10.26" y1="21.63" x2="22.27" y2="33.63"/>
      </g>
    </g>
    <g>
      <polyline class="cls-3" points="11.27 28.61 6.5 33.39 10.87 37.75 15.64 32.98"/>
      <polyline class="cls-3" points="17.25 22.64 22.02 17.87 26.39 22.23 21.61 27"/>
      <g>
        <line class="cls-3" x1="24.87" y1="23.74" x2="23.28" y2="22.16"/>
        <line class="cls-3" x1="23.08" y1="25.53" x2="22.01" y2="24.45"/>
        <line class="cls-3" x1="14.17" y1="34.45" x2="12.58" y2="32.86"/>
        <line class="cls-3" x1="12.38" y1="36.23" x2="11.31" y2="35.16"/>
      </g>
    </g>
  </g>
  <g>
    <path class="cls-3" d="m67.45,27.31l1.71,1.71,4.34-4.34-1.71-1.71-4.34,4.34Z"/>
    <g>
      <rect class="cls-3" x="53.92" y="27.28" width="4.52" height="11.18" transform="translate(39.7 -30.1) rotate(45)"/>
      <path class="cls-3" d="m70.99,23.77s-.89-.43-1.44-1.44l-.2-1.8-1.48-1.48c-1.82-1.82-4.56-2.37-6.95-1.39l-2.03.84s5.43-.14,5.53,3.58"/>
      <path class="cls-3" d="m68.34,26.42s-.65-.97-1.66-1.52l-5.28,5.28-2.54-2.54,5.55-5.55"/>
    </g>
  </g>
  <g>
    <path class="cls-2" d="m24.87,16.78c.14-.09.28-.18.42-.27"/>
    <path class="cls-5" d="m27.06,15.48c3.65-1.98,8.16-3.58,12.28-3.58,8.13,0,15.35,3.87,19.94,9.87"/>
    <path class="cls-2" d="m59.89,22.6c.1.14.19.27.28.41"/>
  </g>
  <g>
    <path class="cls-2" d="m14.29,38.34c0,.17.02.33.03.5"/>
    <path class="cls-4" d="m14.54,40.79c1.18,7.74,5.91,14.32,12.46,18.02"/>
    <path class="cls-2" d="m27.87,59.28c.15.08.3.15.45.22"/>
  </g>
  <g>
    <path class="cls-2" d="m63.86,31.72c.04.16.07.33.1.49"/>
    <path class="cls-1" d="m64.26,34.2c.1.91.15,1.84.15,2.78,0,9.36-5.13,17.53-12.73,21.83"/>
    <path class="cls-2" d="m50.8,59.29c-.15.08-.3.15-.44.22"/>
  </g>
  <g>
    <g>
      <polyline class="cls-3" points="44.78 55.23 48 58.39 48 63.35 43.36 59.77"/>
      <path class="cls-3" d="m39.34,40.35s-9.11,5.58-3.76,20.18h7.51c5.35-14.6-3.76-20.18-3.76-20.18"/>
      <polyline class="cls-3" points="33.89 55.23 30.68 58.39 30.68 63.35 35.31 59.77"/>
      <line class="cls-3" x1="44.44" y1="64.01" x2="44.44" y2="65.63"/>
      <line class="cls-3" x1="41.89" y1="64.38" x2="41.89" y2="66.88"/>
      <line class="cls-3" x1="34.24" y1="64.01" x2="34.24" y2="65.63"/>
      <line class="cls-3" x1="36.79" y1="64.38" x2="36.79" y2="66.88"/>
      <line class="cls-3" x1="39.34" y1="64.67" x2="39.34" y2="68.1"/>
    </g>
    <circle class="cls-3" cx="39.34" cy="48.59" r="1.85"/>
  </g>
</svg>