<svg width="178" height="54" viewBox="0 0 178 54" fill="none" xmlns="http://www.w3.org/2000/svg">
<path d="M63.9191 19.5386C63.8353 20.6343 63.882 21.7212 64.0593 22.7993C63.9207 22.846 63.8498 22.9362 63.8466 23.07C63.8015 24.6154 63.7974 27.4153 63.8345 31.4696C62.8354 31.3262 61.8476 31.3198 60.8711 31.4503L60.8566 25.3518L60.8687 21.6729L60.8928 17.1093C60.8925 17.0861 60.8859 17.0634 60.8737 17.0437C60.8616 17.0239 60.8442 17.0079 60.8237 16.9972C60.8031 16.9865 60.78 16.9816 60.7568 16.9831C60.7337 16.9845 60.7113 16.9922 60.6922 17.0053L53.6873 22.033C53.661 22.0518 53.6397 22.0763 53.625 22.1045C53.6103 22.1326 53.6026 22.1637 53.6027 22.195L53.6534 27.3967L50.6199 29.739L50.6247 20.6577C50.6247 20.6443 50.6279 20.6309 50.6342 20.6187C50.6405 20.6066 50.6497 20.5959 50.661 20.5876L60.7961 13.2636C60.8299 13.2389 60.8573 13.2068 60.8763 13.1698C60.8952 13.1328 60.905 13.0921 60.9049 13.0509L60.9122 8.46068C60.9128 8.39623 60.9287 8.33273 60.9585 8.27524C60.9883 8.21775 61.0312 8.16785 61.0838 8.12953L72.2752 0.0513859C72.3574 -0.00823738 72.4396 -0.00823738 72.5218 0.0513859L79.5605 5.13467C79.5899 5.15571 79.6139 5.18339 79.6305 5.2154C79.6471 5.24742 79.6559 5.28285 79.6561 5.31876C79.6564 5.35468 79.648 5.39004 79.6318 5.42192C79.6156 5.4538 79.592 5.48128 79.563 5.50208L77.431 7.05148C77.3553 7.10788 77.2787 7.10788 77.2014 7.05148L74.0253 4.74309C73.9253 4.67058 73.8762 4.69636 73.8778 4.82044L73.9044 9.40579C73.9044 9.48648 73.8851 9.56605 73.8481 9.63793C73.8111 9.70981 73.7575 9.77193 73.6917 9.81913L71.0618 11.6876C71.0532 11.6938 71.0431 11.6975 71.0326 11.6983C71.022 11.6992 71.0115 11.6971 71.002 11.6924C70.9926 11.6876 70.9846 11.6804 70.9789 11.6715C70.9733 11.6625 70.9702 11.6522 70.97 11.6417L70.9772 4.74551C70.9771 4.73628 70.9745 4.72726 70.9697 4.71941C70.9648 4.71156 70.9579 4.70517 70.9497 4.70095C70.9415 4.69672 70.9323 4.69481 70.9231 4.69542C70.9139 4.69603 70.905 4.69914 70.8974 4.70442L64.0327 9.63301C63.9662 9.68091 63.9122 9.7439 63.8752 9.81666C63.8382 9.88943 63.8192 9.96985 63.82 10.0512L63.9191 19.5386Z" fill="#EDEDED"/>
<path d="M127.336 29.606L124.382 27.4016L124.389 22.1684C124.389 22.1023 124.363 22.0499 124.309 22.0113L117.29 16.9884C117.275 16.9782 117.258 16.9722 117.241 16.971C117.223 16.9699 117.205 16.9736 117.19 16.9819C117.174 16.9901 117.161 17.0025 117.151 17.0177C117.142 17.033 117.138 17.0504 117.138 17.0682L117.198 21.7164C117.143 22.8041 117.142 23.8798 117.193 24.9433C117.2 25.0626 117.243 25.2439 117.324 25.4872L117.266 25.4291C117.256 25.4197 117.244 25.4134 117.231 25.411C117.218 25.4086 117.205 25.4103 117.192 25.4157C117.18 25.4211 117.169 25.43 117.162 25.4414C117.154 25.4529 117.15 25.4662 117.15 25.4799L117.157 31.2134C117.138 31.1957 117.108 31.2118 117.068 31.2618C117.031 31.3101 116.981 31.3359 116.92 31.3391L114.162 31.4479C114.183 28.6101 114.178 25.8175 114.148 23.07C114.146 22.9169 114.075 22.8033 113.935 22.7292C114.065 22.7501 114.14 22.672 114.16 22.4947C114.263 21.5585 114.268 20.5352 114.174 19.4249C114.171 19.3847 114.154 19.3516 114.124 19.3258L114.068 19.2799C114.114 19.2098 114.172 19.0817 114.172 18.9947C114.175 15.9555 114.176 12.9316 114.174 9.92305C114.174 9.87589 114.163 9.82954 114.142 9.7879C114.12 9.74625 114.089 9.71054 114.051 9.68376L107.208 4.76967C107.129 4.71327 107.09 4.73422 107.09 4.83252L107.097 11.6296C107.097 11.6458 107.092 11.6616 107.083 11.6754C107.075 11.6892 107.063 11.7004 107.048 11.7079C107.034 11.7153 107.018 11.7187 107.002 11.7177C106.986 11.7167 106.97 11.7113 106.957 11.7021L104.298 9.79736C104.162 9.70067 104.095 9.56934 104.095 9.40336L104.107 4.78176C104.107 4.77119 104.103 4.76088 104.098 4.75194C104.092 4.743 104.084 4.73578 104.075 4.73105C104.065 4.72633 104.055 4.72427 104.044 4.72511C104.034 4.72596 104.024 4.72966 104.015 4.73583L100.836 7.0273C100.749 7.09014 100.662 7.09014 100.575 7.0273L98.3709 5.44889C98.3504 5.43437 98.3337 5.41516 98.3222 5.39287C98.3107 5.37059 98.3047 5.34587 98.3047 5.32078C98.3047 5.2957 98.3107 5.27098 98.3222 5.24869C98.3337 5.2264 98.3504 5.2072 98.3709 5.19267L105.523 0.034455C105.588 -0.0122768 105.653 -0.0114715 105.719 0.0368717L117.017 8.18512C117.054 8.21208 117.085 8.24785 117.106 8.28946C117.127 8.33108 117.138 8.37733 117.138 8.42442V13.075C117.138 13.162 117.174 13.2321 117.246 13.2853L127.244 20.5005C127.29 20.5334 127.328 20.5769 127.353 20.6274C127.379 20.6779 127.392 20.7339 127.391 20.7906L127.336 29.606Z" fill="#EDEDED"/>
<path d="M114.068 19.2799L114.124 19.3258C114.154 19.3516 114.171 19.3847 114.174 19.4249C114.268 20.5352 114.263 21.5585 114.16 22.4947C114.14 22.672 114.065 22.7501 113.935 22.7292L107.215 17.5106C107.202 17.5002 107.185 17.4939 107.169 17.4922C107.152 17.4906 107.134 17.4937 107.119 17.5012C107.104 17.5088 107.091 17.5204 107.082 17.5349C107.073 17.5493 107.068 17.566 107.068 17.5831L107.065 31.3053C107.065 31.3444 107.081 31.3819 107.109 31.4095C107.136 31.4372 107.174 31.4527 107.213 31.4527L114.162 31.4479L116.92 31.3391C116.981 31.3359 117.031 31.3101 117.068 31.2618C117.108 31.2118 117.138 31.1957 117.157 31.2134C117.143 31.2569 117.14 31.3004 117.15 31.344C117.164 31.402 117.201 31.431 117.261 31.431L124.389 31.4358C124.695 31.4358 124.728 31.3407 124.488 31.1506L117.324 25.4872C117.243 25.2439 117.2 25.0626 117.193 24.9433C117.142 23.8798 117.143 22.8041 117.198 21.7164L124.382 27.4016L127.336 29.606L133.178 34.3195C133.263 34.3872 133.251 34.421 133.142 34.421L104.24 34.4162C104.212 34.4162 104.186 34.4052 104.166 34.3857C104.147 34.3662 104.136 34.3398 104.136 34.3122L104.138 23.1184C104.138 23.061 104.123 23.0045 104.094 22.9544C104.065 22.9044 104.024 22.8626 103.974 22.8331C103.239 22.3932 102.608 21.8542 101.917 21.3538C97.9511 18.4839 93.7074 15.3826 89.1857 12.0502C89.0761 11.9696 88.9665 11.9696 88.8569 12.0502L73.9769 22.9081C73.9076 22.9596 73.873 23.0281 73.873 23.1135L73.8705 34.2615C73.8705 34.3038 73.8537 34.3444 73.8238 34.3743C73.7939 34.4042 73.7533 34.421 73.711 34.421L44.8815 34.4258C44.7897 34.4258 44.78 34.3968 44.8525 34.3388L50.6199 29.739L53.6534 27.3967L60.8687 21.6729L60.8566 25.3518L53.564 31.1433C53.3013 31.3528 53.3384 31.4576 53.6752 31.4576L60.8711 31.4503C61.8476 31.3198 62.8354 31.3262 63.8345 31.4696L70.8588 31.4334C70.8979 31.4334 70.9354 31.4179 70.963 31.3902C70.9907 31.3626 71.0062 31.3251 71.0062 31.2859L70.9917 17.6242C70.9914 17.5999 70.9843 17.5762 70.9713 17.5558C70.9582 17.5354 70.9398 17.5189 70.9179 17.5084C70.8961 17.4979 70.8718 17.4936 70.8476 17.4961C70.8235 17.4986 70.8006 17.5078 70.7814 17.5226L64.0593 22.7993C63.882 21.7212 63.8353 20.6343 63.9191 19.5386C64.1318 19.1792 64.3542 18.9117 64.5862 18.7361C68.5117 15.792 72.4356 12.8454 76.3578 9.8965C76.5657 9.74019 76.7719 9.58791 76.9766 9.43966C80.7884 6.65751 84.8783 3.49828 88.8424 0.58802C88.896 0.548171 88.961 0.526849 89.0277 0.527285C89.0945 0.527721 89.1592 0.549891 89.2122 0.590437L114.068 19.2799ZM88.9512 8.33743C88.9694 8.32408 88.9914 8.31688 89.014 8.31688C89.0366 8.31688 89.0587 8.32408 89.0769 8.33743L103.981 19.5095C103.997 19.5212 104.016 19.5282 104.036 19.5298C104.055 19.5313 104.075 19.5274 104.093 19.5183C104.11 19.5093 104.125 19.4955 104.135 19.4786C104.145 19.4617 104.151 19.4423 104.15 19.4225L104.112 15.1852C104.111 15.1687 104.107 15.1525 104.1 15.1378C104.092 15.1231 104.081 15.1104 104.068 15.1006L89.0745 4.12674C89.0562 4.11339 89.0342 4.10619 89.0116 4.10619C88.989 4.10619 88.967 4.11339 88.9488 4.12674L73.931 15.1031C73.9176 15.1128 73.9068 15.1255 73.8992 15.1402C73.8917 15.1549 73.8876 15.1712 73.8875 15.1877L73.8681 19.4249C73.868 19.4449 73.8735 19.4645 73.884 19.4815C73.8945 19.4985 73.9095 19.5121 73.9274 19.521C73.9454 19.5298 73.9654 19.5334 73.9852 19.5314C74.0051 19.5294 74.024 19.5218 74.0397 19.5095L88.9512 8.33743Z" fill="#EDEDED"/>
<path d="M87.6967 21.6028H82.9494C82.88 21.6028 82.8237 21.659 82.8237 21.7285V26.4806C82.8237 26.55 82.88 26.6063 82.9494 26.6063H87.6967C87.7661 26.6063 87.8224 26.55 87.8224 26.4806V21.7285C87.8224 21.659 87.7661 21.6028 87.6967 21.6028Z" fill="#EDEDED"/>
<path d="M95.1096 21.6118L90.314 21.6035C90.2473 21.6033 90.1931 21.6574 90.1929 21.7241L90.1846 26.4811C90.1845 26.5478 90.2385 26.602 90.3053 26.6021L95.1009 26.6105C95.1677 26.6106 95.2219 26.5566 95.222 26.4899L95.2303 21.7329C95.2304 21.6661 95.1764 21.6119 95.1096 21.6118Z" fill="#EDEDED"/>
<path d="M95.129 28.9238L90.2947 28.9153C90.2387 28.9152 90.1931 28.9606 90.193 29.0167L90.1845 33.8848C90.1844 33.9409 90.2298 33.9864 90.2859 33.9865L95.1202 33.995C95.1763 33.9951 95.2218 33.9497 95.2219 33.8936L95.2304 29.0255C95.2305 28.9694 95.1851 28.9239 95.129 28.9238Z" fill="#EDEDED"/>
<path d="M82.9566 28.9244H87.687C87.7229 28.9244 87.7574 28.9386 87.7827 28.964C87.8081 28.9894 87.8224 29.0238 87.8224 29.0597L87.8248 33.8554C87.8248 33.8913 87.8105 33.9257 87.7852 33.9511C87.7598 33.9765 87.7253 33.9907 87.6894 33.9907L82.9639 33.9762C82.928 33.9762 82.8936 33.962 82.8682 33.9366C82.8428 33.9112 82.8285 33.8768 82.8285 33.8409L82.8213 29.0597C82.8213 29.0238 82.8355 28.9894 82.8609 28.964C82.8863 28.9386 82.9207 28.9244 82.9566 28.9244Z" fill="#EDEDED"/>
<path d="M137.11 41.0217L134.949 41.0179C134.895 41.0178 134.852 41.0611 134.852 41.1145L134.849 42.7049C134.849 42.7583 134.892 42.8017 134.946 42.8018L137.107 42.8056C137.16 42.8057 137.203 42.7625 137.204 42.7091L137.206 41.1186C137.206 41.0652 137.163 41.0218 137.11 41.0217Z" fill="#EDEDED"/>
<path d="M140.193 51.9889V42.8472C140.192 42.8045 140.177 42.7631 140.149 42.7308C140.121 42.6984 140.083 42.6771 140.04 42.6708L139.071 42.5257C139.029 42.5194 138.991 42.4985 138.963 42.4666C138.935 42.4348 138.919 42.394 138.919 42.3517L138.907 41.2011C138.906 41.1774 138.911 41.1539 138.92 41.1319C138.928 41.1099 138.942 41.0899 138.958 41.0731C138.975 41.0562 138.995 41.0428 139.016 41.0337C139.038 41.0245 139.062 41.0198 139.085 41.0198H142.448C142.471 41.0198 142.495 41.0245 142.516 41.0334C142.538 41.0424 142.558 41.0556 142.574 41.0722C142.591 41.0888 142.604 41.1086 142.613 41.1303C142.622 41.152 142.627 41.1752 142.627 41.1987V52.0227C142.627 52.064 142.642 52.1039 142.668 52.1356C142.695 52.1674 142.731 52.189 142.772 52.1968L143.564 52.3466C143.605 52.354 143.643 52.3753 143.67 52.4071C143.696 52.4389 143.711 52.479 143.712 52.5207L143.724 53.6181C143.724 53.6418 143.72 53.6653 143.711 53.6873C143.702 53.7092 143.689 53.7292 143.673 53.7461C143.656 53.763 143.636 53.7764 143.614 53.7855C143.592 53.7947 143.569 53.7994 143.545 53.7994L139.185 53.7849C139.138 53.7842 139.094 53.7658 139.061 53.7333C139.028 53.7009 139.009 53.657 139.008 53.6108L138.986 52.5279C138.986 52.4858 139 52.4448 139.026 52.4121C139.053 52.3793 139.09 52.357 139.131 52.3491L140.05 52.1654C140.09 52.157 140.127 52.1348 140.153 52.1026C140.179 52.0705 140.193 52.0303 140.193 51.9889Z" fill="#EDEDED"/>
<path d="M150.071 45.7937C150.076 45.799 150.082 45.8027 150.088 45.8043C150.095 45.8059 150.102 45.8054 150.109 45.8028C150.115 45.8002 150.121 45.7956 150.125 45.7897C150.129 45.7838 150.132 45.7767 150.132 45.7696L150.134 42.765C150.134 42.7231 150.114 42.699 150.074 42.6925L149.095 42.5475C148.939 42.5233 148.86 42.4323 148.86 42.2743L148.863 41.2301C148.863 41.0899 148.934 41.0198 149.076 41.0198H152.31C152.357 41.0198 152.403 41.0387 152.436 41.0722C152.47 41.1058 152.489 41.1513 152.489 41.1987L152.491 51.9164C152.491 51.9771 152.512 52.0361 152.55 52.0832C152.588 52.1303 152.642 52.1628 152.701 52.175L153.485 52.3418C153.594 52.366 153.649 52.4337 153.649 52.5448L153.651 53.5915C153.651 53.7252 153.585 53.7921 153.453 53.7921H150.625C150.498 53.7921 150.426 53.7293 150.41 53.6036L150.318 52.9292C150.297 52.7745 150.235 52.7559 150.132 52.8736C149.615 53.4706 148.853 53.9855 148.027 53.9879C146.855 53.9911 145.942 53.4948 145.288 52.4989C145.015 52.0832 144.756 51.6626 144.674 51.1622C144.458 49.8425 144.473 48.6742 144.72 47.6574C144.813 47.2738 145.017 46.8081 145.331 46.2602C146.325 44.532 148.725 44.2733 150.071 45.7937ZM147.101 47.9547C146.666 49.3469 146.608 52.4119 148.928 52.059C149.37 51.9929 149.734 51.7979 150.021 51.474C150.096 51.3886 150.134 51.2887 150.134 51.1743V47.6042C150.134 47.5043 150.098 47.4075 150.033 47.331C149.071 46.1998 147.575 46.4343 147.101 47.9547Z" fill="#EDEDED"/>
<path d="M26.2525 43.6811L26.2549 45.627C26.2549 45.7994 26.1687 45.8856 25.9963 45.8856L24.7514 45.8783C24.5419 45.8783 24.4348 45.7728 24.4299 45.5617C24.4251 45.3232 24.405 45.0702 24.3695 44.8027C24.2269 43.7633 22.941 43.5724 22.1312 43.5434C21.1901 43.5095 20.4505 43.8084 19.9123 44.4401C19.2838 45.1749 18.9446 45.9774 18.8947 46.8476C18.8246 48.0659 18.7738 49.3059 19.3539 50.4226C20.208 52.0582 21.6301 52.5199 23.6202 51.8076C24.4614 51.5079 24.3744 50.7344 24.4565 50.0189C24.4743 49.853 24.5669 49.7708 24.7345 49.7724L26.0084 49.7748C26.1679 49.7764 26.2485 49.857 26.2501 50.0165L26.2573 51.9164C26.2574 51.9999 26.2397 52.0823 26.2055 52.1581C26.1713 52.234 26.1214 52.3016 26.0591 52.3563C24.1109 54.0653 21.423 54.5753 19.1412 53.2023C16.9827 51.9019 16.2793 49.5089 16.4727 47.0144C16.666 44.5199 18.2541 42.3082 20.768 41.8344C22.7234 41.467 24.691 41.9867 26.1365 43.4008C26.1733 43.4376 26.2025 43.4813 26.2224 43.5294C26.2423 43.5775 26.2525 43.6291 26.2525 43.6811Z" fill="#EDEDED"/>
<path d="M54.1803 51.8826C55.0529 51.6239 55.0675 50.9036 55.0965 50.164C55.1061 49.9077 55.2399 49.7796 55.4977 49.7796H56.7184C56.8843 49.7812 56.9673 49.8642 56.9673 50.0286L56.9698 52.0107C56.9698 52.0945 56.9416 52.167 56.8852 52.2282C56.4871 52.6633 55.9699 53.0323 55.3333 53.3353C53.2127 54.344 51.2499 54.2046 49.4451 52.9171C49.2131 52.7511 48.8997 52.4506 48.5049 52.0155C47.2262 50.6039 46.9796 48.2592 47.2842 46.4004C48.0746 41.5758 53.4528 40.3044 56.8682 43.3814C56.9424 43.4491 56.9794 43.5329 56.9794 43.6328L56.9746 45.743C56.9746 45.8461 56.923 45.8969 56.8199 45.8953L55.3213 45.8856C55.2817 45.8857 55.2434 45.872 55.213 45.8468C55.1825 45.8217 55.1618 45.7866 55.1545 45.7478C55.0884 45.4159 55.0425 45.0742 55.0167 44.7229C54.9297 43.57 53.1168 43.4902 52.3119 43.57C50.632 43.7367 49.7304 45.3272 49.6167 46.8984C49.5346 48.0635 49.5225 49.2938 50.0373 50.3694C50.8012 51.968 52.1822 52.4723 54.1803 51.8826Z" fill="#EDEDED"/>
<path d="M4.13791 45.2184C4.3055 47.6694 4.38929 49.9166 4.38929 51.9599C4.38929 52.0775 4.4465 52.1476 4.56091 52.1702L5.53986 52.3539C5.57443 52.3601 5.60571 52.3783 5.62824 52.4053C5.65078 52.4322 5.66312 52.4662 5.66313 52.5013L5.66555 53.6495C5.66555 53.743 5.61882 53.7897 5.52536 53.7897L0.920666 53.7921C0.814311 53.7921 0.761134 53.7389 0.761134 53.6326L0.751466 52.5279C0.751309 52.4846 0.766424 52.4426 0.794216 52.4091C0.822008 52.3756 0.860738 52.3526 0.903746 52.3442L1.81502 52.1726C1.91976 52.1533 1.97213 52.0904 1.97213 51.9841V43.6787C1.97213 43.5901 1.92862 43.5361 1.8416 43.5168L0.881992 43.3016C0.796586 43.2823 0.753883 43.2283 0.753883 43.1397V41.9843C0.753883 41.9037 0.794169 41.8634 0.874741 41.8634L4.98875 41.8707C5.02548 41.8707 5.06141 41.8823 5.09168 41.9039C5.12195 41.9256 5.14508 41.9561 5.15795 41.9915L8.06337 50.4395C8.13267 50.6409 8.20276 50.6409 8.27367 50.4395L11.225 41.9843C11.2524 41.9053 11.3088 41.8658 11.3942 41.8658L15.501 41.8731C15.617 41.8731 15.6742 41.9311 15.6726 42.0471L15.6653 43.1203C15.6637 43.2235 15.613 43.2855 15.5131 43.3065L14.4737 43.5288C14.4396 43.5356 14.4088 43.554 14.3868 43.5809C14.3647 43.6078 14.3527 43.6415 14.3528 43.6763V51.9236C14.3529 51.9822 14.3732 52.0389 14.4102 52.084C14.4473 52.129 14.4988 52.1595 14.5559 52.1702L15.4599 52.3418C15.592 52.366 15.6597 52.4465 15.6629 52.5835L15.6774 53.5407C15.6806 53.7131 15.596 53.7985 15.4236 53.7969L10.9132 53.7849C10.7859 53.7832 10.7222 53.7188 10.7222 53.5915L10.7247 52.5666C10.7263 52.4393 10.7891 52.3636 10.9132 52.3394L11.7665 52.1774C11.9099 52.15 11.9808 52.063 11.9792 51.9164C11.9614 49.7329 12.042 47.4769 12.2209 45.1483C12.2225 45.1113 12.2056 45.0871 12.1701 45.0758C12.125 45.0613 12.096 45.0742 12.0831 45.1145C11.4546 46.9612 10.7359 48.9795 9.927 51.1695C9.63533 51.9623 9.32674 52.7954 9.00123 53.6688C8.98928 53.702 8.9671 53.7307 8.93769 53.7511C8.90828 53.7714 8.87308 53.7823 8.83686 53.7824H7.52676C7.42041 53.7824 7.3487 53.7325 7.31164 53.6326L4.2926 45.187C4.28612 45.169 4.27336 45.1539 4.25666 45.1445C4.23997 45.1351 4.22045 45.132 4.20167 45.1359C4.1829 45.1397 4.16612 45.1501 4.15441 45.1653C4.14271 45.1804 4.13685 45.1993 4.13791 45.2184Z" fill="#EDEDED"/>
<path d="M30.7702 45.2499L30.9998 51.9768C31.0046 52.0945 31.0651 52.1637 31.1811 52.1847L32.177 52.3515C32.2591 52.366 32.3002 52.4143 32.3002 52.4965L32.3051 53.6543C32.3051 53.7446 32.2599 53.7905 32.1697 53.7921L27.5964 53.7969C27.4256 53.7969 27.3402 53.7107 27.3402 53.5383L27.3426 52.5835C27.3426 52.4369 27.4151 52.3507 27.5602 52.3249L28.4449 52.175C28.4929 52.167 28.5365 52.1422 28.5679 52.105C28.5994 52.0678 28.6166 52.0207 28.6165 51.972L28.6116 43.6763C28.6116 43.5909 28.5706 43.5393 28.4884 43.5216L27.5022 43.3113C27.3942 43.2887 27.3402 43.2219 27.3402 43.1107V41.9867C27.3402 41.9546 27.3529 41.9239 27.3756 41.9012C27.3983 41.8786 27.429 41.8658 27.4611 41.8658L31.5582 41.8707C31.6091 41.8708 31.6587 41.8866 31.7003 41.916C31.7418 41.9455 31.7732 41.987 31.7902 42.035L34.6908 50.4492C34.7536 50.6329 34.8173 50.6329 34.8818 50.4492L37.8404 41.9964C37.8538 41.959 37.8784 41.9266 37.9108 41.9037C37.9432 41.8808 37.9819 41.8684 38.0216 41.8683H42.0245C42.1808 41.8683 42.2573 41.9464 42.2541 42.1027L42.242 43.0672C42.2404 43.2106 42.1703 43.2968 42.0317 43.3258L41.1084 43.5168C41.0149 43.5361 40.9682 43.5941 40.9682 43.6908L40.9657 51.9889C40.9658 52.0329 40.9816 52.0754 41.0103 52.109C41.0391 52.1427 41.079 52.1652 41.1229 52.1726L42.0341 52.3225C42.1695 52.345 42.238 52.4248 42.2396 52.5618L42.2517 53.5456C42.2533 53.7099 42.1719 53.7921 42.0075 53.7921L37.5503 53.7897C37.4133 53.7897 37.3448 53.7212 37.3448 53.5842L37.3521 52.5666C37.3537 52.4345 37.419 52.3563 37.5479 52.3321L38.4108 52.1654C38.5333 52.1428 38.5945 52.0695 38.5945 51.9454C38.6058 49.915 38.7073 47.7637 38.8991 45.4916C38.912 45.3385 38.9136 45.2507 38.9039 45.2281C38.8137 45.0122 38.7307 45.0146 38.6549 45.2354C37.6816 48.0667 36.6688 50.8714 35.6166 53.6495C35.5843 53.7333 35.5239 53.7752 35.4353 53.7752L34.2315 53.7873C34.1849 53.7873 34.1391 53.7744 34.0991 53.7501C34.059 53.7259 34.0263 53.6911 34.0043 53.6495C33.819 53.3014 33.6627 52.9413 33.5354 52.569C32.6265 49.9375 31.7427 47.4898 30.8838 45.2257C30.8789 45.213 30.8698 45.2025 30.858 45.1962C30.8461 45.1898 30.8323 45.1878 30.8189 45.1907C30.8055 45.1935 30.7933 45.201 30.7844 45.2118C30.7756 45.2226 30.7705 45.236 30.7702 45.2499Z" fill="#EDEDED"/>
<path d="M120.454 47.6453C122.153 48.1311 122.62 49.8256 122.216 51.4016C121.723 53.3377 119.507 53.8115 117.781 53.8018C115.921 53.7921 114.109 53.7905 112.344 53.797C112.24 53.797 112.187 53.7454 112.187 53.6423L112.183 52.5328C112.183 52.428 112.233 52.366 112.335 52.3467L113.333 52.1605C113.38 52.1516 113.422 52.1264 113.453 52.0894C113.483 52.0523 113.5 52.0057 113.5 51.9575L113.497 43.7101C113.497 43.6038 113.445 43.5401 113.34 43.5192L112.439 43.3379C112.367 43.3234 112.302 43.2842 112.255 43.2269C112.208 43.1696 112.183 43.0978 112.183 43.0237V42.0931C112.183 41.9416 112.258 41.8659 112.41 41.8659C114.266 41.8546 116.225 41.861 118.286 41.8852C118.689 41.89 119.315 42.0657 120.164 42.4121C121.358 42.9004 121.945 43.8189 121.924 45.1677C121.904 46.3811 121.394 46.9516 120.435 47.4954C120.322 47.5599 120.328 47.6098 120.454 47.6453ZM115.803 43.8092L115.813 46.8017C115.813 46.8305 115.825 46.8582 115.845 46.8786C115.865 46.899 115.893 46.9105 115.922 46.9105L117.863 46.9032C118.085 46.9025 118.304 46.8636 118.509 46.7887C118.713 46.7138 118.899 46.6044 119.055 46.4668C119.211 46.3292 119.335 46.166 119.419 45.9867C119.503 45.8073 119.546 45.6153 119.545 45.4215V45.1604C119.543 44.7697 119.364 44.3956 119.047 44.1205C118.73 43.8454 118.3 43.6917 117.853 43.6932L115.912 43.7005C115.883 43.7005 115.856 43.7119 115.835 43.7323C115.815 43.7527 115.803 43.7804 115.803 43.8092ZM115.808 48.6218V51.8366C115.808 51.8674 115.82 51.8969 115.842 51.9187C115.864 51.9404 115.894 51.9527 115.924 51.9527H118.445C118.851 51.9527 119.24 51.7922 119.527 51.5066C119.814 51.2211 119.975 50.8337 119.975 50.4299V50.0286C119.975 49.6247 119.814 49.2374 119.527 48.9518C119.24 48.6662 118.851 48.5058 118.445 48.5058H115.924C115.909 48.5058 115.894 48.5088 115.88 48.5146C115.866 48.5205 115.853 48.529 115.842 48.5398C115.831 48.5505 115.823 48.5633 115.817 48.5774C115.811 48.5915 115.808 48.6066 115.808 48.6218Z" fill="#EDEDED"/>
<path d="M80.8924 44.9429L82.0333 44.9477C82.1945 44.9493 82.2758 45.0299 82.2774 45.1894L82.2847 46.3569C82.2863 46.5438 82.1944 46.6373 82.0091 46.6373L80.8296 46.6325C80.7975 46.6325 80.7668 46.6452 80.7441 46.6679C80.7214 46.6905 80.7087 46.7213 80.7087 46.7533C80.7264 48.2826 80.7313 49.8143 80.7232 51.3484C80.72 52.001 81.2413 52.2129 82.2871 51.9841C82.3354 51.9744 82.362 51.9945 82.3669 52.0445L82.5336 53.6398C82.5401 53.6914 82.5183 53.7252 82.4684 53.7413C80.5057 54.3166 78.4027 53.8888 78.3641 51.5103C78.3399 49.9649 78.3367 48.3865 78.3544 46.7751C78.356 46.6784 78.3085 46.6301 78.2118 46.6301L77.257 46.6325C77.0991 46.6325 77.0193 46.5535 77.0177 46.3956L77.0104 45.1918C77.0088 45.0291 77.0894 44.9477 77.2522 44.9477L78.1924 44.9453C78.2923 44.9453 78.3431 44.8953 78.3447 44.7954L78.3495 42.8279C78.3495 42.7892 78.3689 42.7699 78.4076 42.7699H80.6483C80.6934 42.7699 80.716 42.7924 80.716 42.8375L80.7232 44.7737C80.7248 44.8849 80.7812 44.9413 80.8924 44.9429Z" fill="#EDEDED"/>
<path d="M73.4161 46.5889C72.6523 46.4004 71.3253 46.2965 71.144 47.2778C71.0159 47.9716 71.8329 48.3365 72.3743 48.4163C73.4572 48.5783 75.1516 49.0617 75.7728 49.9971C76.4134 50.9616 76.1475 52.4167 75.1685 53.108C73.5442 54.2562 71.683 54.2344 69.8605 53.3594C69.5205 53.1966 69.2578 52.9992 69.0725 52.7672C69.0209 52.7027 68.9951 52.6294 68.9951 52.5472L68.983 50.9664C68.9814 50.8311 69.0475 50.7642 69.1813 50.7658L70.5252 50.79C70.6074 50.79 70.6597 50.8302 70.6823 50.9108C70.8394 51.4764 70.8201 52.1218 71.5477 52.2572C72.3622 52.407 73.9237 52.4288 73.7787 51.2033C73.595 49.6297 69.0145 50.7029 68.8888 47.6138C68.8332 46.2554 69.7541 45.2474 71.0497 44.9622C72.5121 44.6431 74.3661 44.8196 75.6689 45.6777C75.743 45.726 75.7801 45.7937 75.7801 45.8807L75.8164 47.8459C75.818 47.9329 75.7745 47.9764 75.6858 47.9764L74.4313 47.9788C74.3666 47.9789 74.3039 47.9572 74.2534 47.9172C74.2029 47.8772 74.1676 47.8214 74.1533 47.7588C74.0373 47.2706 74.0059 46.734 73.4161 46.5889Z" fill="#EDEDED"/>
<path d="M91.4554 50.1664C91.4554 50.6597 91.3582 51.1481 91.1695 51.6038C90.9807 52.0596 90.704 52.4737 90.3552 52.8225C90.0064 53.1713 89.5923 53.448 89.1366 53.6367C88.6809 53.8255 88.1924 53.9226 87.6991 53.9226H87.0078C86.0116 53.9226 85.0562 53.5269 84.3517 52.8225C83.6473 52.118 83.2515 51.1626 83.2515 50.1664V48.6049C83.2515 47.6087 83.6473 46.6533 84.3517 45.9488C85.0562 45.2444 86.0116 44.8486 87.0078 44.8486H87.6991C88.1924 44.8486 88.6809 44.9458 89.1366 45.1346C89.5923 45.3233 90.0064 45.6 90.3552 45.9488C90.704 46.2976 90.9807 46.7117 91.1695 47.1674C91.3582 47.6232 91.4554 48.1116 91.4554 48.6049V50.1664ZM85.6421 48.4429C85.485 49.8932 85.5092 52.5715 87.82 52.0663C89.3718 51.7303 89.2872 49.0883 88.9609 47.9233C88.7675 47.232 88.3687 46.8162 87.7644 46.676C86.5002 46.3811 85.7702 47.273 85.6421 48.4429Z" fill="#EDEDED"/>
<path d="M96.0141 45.9073C96.1785 45.7744 96.2704 45.581 96.4444 45.4529C97.7158 44.5078 100.017 44.4498 100.708 46.1394C100.716 46.1568 100.728 46.1719 100.743 46.1831C100.758 46.1943 100.776 46.2011 100.795 46.2029C100.814 46.2046 100.832 46.2012 100.849 46.193C100.866 46.1848 100.88 46.1721 100.89 46.1563C101.536 45.1411 102.525 44.6995 103.858 44.8317C105.7 45.0154 106.166 46.7775 106.19 48.3027C106.21 49.5435 106.211 50.7521 106.195 51.9285C106.194 52.0187 106.235 52.0815 106.318 52.117C106.612 52.2427 106.861 52.3071 107.065 52.3104C107.257 52.3136 107.355 52.4111 107.36 52.6028L107.392 53.5504C107.397 53.718 107.314 53.8018 107.145 53.8018L103.002 53.78C102.876 53.7784 102.814 53.7147 102.814 53.589L102.811 52.5327C102.81 52.4264 102.861 52.3619 102.966 52.3394L103.749 52.1629C103.855 52.1388 103.908 52.0727 103.906 51.9647C103.89 50.8464 103.885 49.6918 103.892 48.5009C103.896 47.3987 103.493 46.4198 102.207 46.676C101.761 46.7662 101.41 46.9797 101.155 47.3165C101.097 47.3934 101.066 47.4867 101.066 47.5824C101.071 48.9989 101.071 50.4363 101.066 51.8946C101.066 52.0445 101.135 52.142 101.274 52.1871C101.453 52.2451 101.636 52.2854 101.823 52.308C101.882 52.3144 101.937 52.3425 101.978 52.387C102.018 52.4314 102.041 52.4893 102.043 52.5497L102.055 53.6132C102.056 53.726 102 53.7832 101.885 53.7848L97.8729 53.7873C97.7875 53.7873 97.744 53.7437 97.7424 53.6567L97.7376 52.5545C97.7376 52.5062 97.7535 52.4593 97.7828 52.4212C97.8121 52.3831 97.8532 52.356 97.8995 52.3442L98.5522 52.1726C98.5806 52.1657 98.606 52.1493 98.6244 52.1262C98.6427 52.103 98.653 52.0743 98.6537 52.0445C98.673 50.815 98.673 49.5065 98.6537 48.119C98.6505 47.8467 98.6094 47.5864 98.5304 47.3383C98.2065 46.3206 96.587 46.5382 96.0165 47.2198C95.9585 47.2891 95.9295 47.3697 95.9295 47.4615L95.9271 51.9599C95.9271 52.0856 95.9892 52.1613 96.1132 52.1871L96.8577 52.3442C96.8988 52.3526 96.9357 52.3747 96.9621 52.4069C96.9886 52.4391 97.0029 52.4793 97.0028 52.5207L97.0003 53.5745C96.9987 53.718 96.927 53.7897 96.7852 53.7897L92.5866 53.7873C92.5657 53.7873 92.5449 53.7831 92.5256 53.7751C92.5062 53.7671 92.4886 53.7553 92.4738 53.7405C92.459 53.7257 92.4472 53.7081 92.4392 53.6888C92.4312 53.6694 92.4271 53.6487 92.4271 53.6277L92.4319 52.5666C92.4324 52.5138 92.4509 52.4628 92.4843 52.4219C92.5177 52.381 92.564 52.3528 92.6156 52.3418L93.3335 52.1871C93.4002 52.1718 93.4597 52.1342 93.5023 52.0807C93.5449 52.0271 93.5681 51.9606 93.568 51.8922V46.8186C93.568 46.6993 93.51 46.6292 93.3939 46.6083L92.4319 46.4318C92.3952 46.4251 92.362 46.4056 92.3382 46.3769C92.3144 46.3482 92.3013 46.312 92.3014 46.2747L92.3038 45.0661C92.3038 44.984 92.3441 44.9429 92.4247 44.9429L95.6322 44.9453C95.7305 44.9453 95.7837 44.9936 95.7918 45.0903L95.8594 45.8421C95.8691 45.9629 95.9207 45.9847 96.0141 45.9073Z" fill="#EDEDED"/>
<path d="M156.941 50.2316C157.125 51.6513 157.96 52.2773 159.445 52.1097C160.096 52.0356 160.673 51.8551 161.176 51.5683C161.193 51.5586 161.213 51.5524 161.232 51.5502C161.252 51.5479 161.272 51.5497 161.291 51.5553C161.311 51.561 161.328 51.5703 161.344 51.5829C161.359 51.5956 161.372 51.6111 161.381 51.6287L161.978 52.7914C161.999 52.8298 162.003 52.8747 161.989 52.9163C161.976 52.958 161.947 52.993 161.908 53.0138C161.235 53.3731 160.718 53.61 160.359 53.7244C156.905 54.8266 154.111 52.4481 154.418 48.8804C154.516 47.7395 154.946 46.7299 155.708 45.8517C156.762 44.6359 158.889 44.5827 160.216 45.1435C160.822 45.3997 161.327 45.8936 161.729 46.6252C162.271 47.6114 162.227 48.8224 162.208 49.9077C162.207 49.9528 162.189 49.9958 162.157 50.0275C162.125 50.0592 162.082 50.0769 162.036 50.0769L157.074 50.0793C156.973 50.0793 156.928 50.1301 156.941 50.2316ZM157.055 48.4888L159.844 48.4598C159.861 48.4598 159.877 48.4532 159.889 48.4414C159.9 48.4296 159.907 48.4137 159.907 48.397L159.904 48.2713C159.9 47.8329 159.75 47.4139 159.488 47.1066C159.226 46.7993 158.873 46.6287 158.507 46.6325H158.353C158.171 46.6343 157.992 46.6789 157.826 46.7637C157.659 46.8485 157.508 46.9719 157.382 47.1268C157.255 47.2816 157.155 47.465 157.088 47.6664C157.021 47.8677 156.987 48.0831 156.989 48.3003L156.992 48.426C156.992 48.4427 156.998 48.4586 157.01 48.4704C157.022 48.4822 157.038 48.4888 157.055 48.4888Z" fill="#EDEDED"/>
<path d="M166.953 45.8783C166.966 46.1474 167.035 46.1628 167.161 45.9243C167.617 45.0476 168.377 44.6826 169.44 44.8293C169.582 44.8486 169.646 44.9292 169.634 45.071L169.479 46.7074C169.455 46.9733 169.31 47.0917 169.044 47.0627C168.307 46.9806 167.006 47.0434 167.021 48.1215C167.038 49.4702 167.038 50.7199 167.018 51.8705C167.018 51.9428 167.042 52.0131 167.087 52.0695C167.132 52.1259 167.195 52.1648 167.265 52.1799L168.021 52.3442C168.139 52.3684 168.198 52.4409 168.198 52.5618L168.205 53.6012C168.205 53.6274 168.2 53.6534 168.191 53.6777C168.181 53.7021 168.166 53.7242 168.148 53.7429C168.129 53.7615 168.107 53.7764 168.083 53.7865C168.059 53.7966 168.033 53.8018 168.007 53.8018L163.654 53.7921C163.546 53.7921 163.492 53.7381 163.492 53.6302L163.496 52.5207C163.496 52.4176 163.548 52.3563 163.651 52.337L164.519 52.1726C164.556 52.1653 164.589 52.1454 164.613 52.1163C164.637 52.0872 164.65 52.0507 164.649 52.0131L164.654 46.7654C164.654 46.6784 164.611 46.6277 164.524 46.6132L163.615 46.4609C163.479 46.4367 163.41 46.3561 163.407 46.2192L163.388 45.1798C163.384 45.0219 163.461 44.9429 163.617 44.9429L166.74 44.9453C166.853 44.9453 166.913 45.0017 166.919 45.1145L166.953 45.8783Z" fill="#EDEDED"/>
<path d="M173.472 46.6252C172.732 46.9612 172.795 47.8677 173.516 48.1988C173.76 48.3116 174.007 48.389 174.255 48.4309C175.95 48.7185 178.391 49.4775 177.842 51.8052C177.704 52.3982 177.361 52.8728 176.815 53.2289C175.261 54.2393 173.407 54.1958 171.732 53.386C171.405 53.2281 171.127 53.0509 170.898 52.8543C170.832 52.7963 170.798 52.7229 170.796 52.6343L170.77 51.0003C170.768 50.8633 170.835 50.794 170.97 50.7924L172.215 50.7731C172.278 50.7726 172.34 50.793 172.389 50.8311C172.439 50.8692 172.475 50.9228 172.491 50.9834L172.694 51.7835C172.715 51.868 172.757 51.9459 172.816 52.01C172.875 52.0742 172.95 52.1226 173.032 52.1509C173.902 52.4578 176.015 52.5304 175.502 50.9495C175.475 50.8625 175.423 50.7932 175.345 50.7417C174.05 49.8739 172.164 50.2026 171.094 48.849C170.226 47.7541 170.666 46.2216 171.763 45.4529C173.283 44.387 175.964 44.7423 177.443 45.6463C177.48 45.6685 177.511 45.6999 177.532 45.7377C177.553 45.7754 177.564 45.818 177.564 45.8614L177.574 47.7903C177.574 47.916 177.51 47.9789 177.383 47.9789L176.138 47.974C176.051 47.974 175.992 47.9329 175.962 47.8507C175.785 47.3939 175.882 46.8283 175.311 46.6397C174.586 46.4013 173.973 46.3964 173.472 46.6252Z" fill="#EDEDED"/>
<path d="M64.3373 52.876C64.3346 52.859 64.3271 52.8431 64.3157 52.8302C64.3043 52.8174 64.2894 52.8081 64.2728 52.8035C64.2562 52.7989 64.2386 52.7992 64.2222 52.8043C64.2058 52.8095 64.1912 52.8193 64.1802 52.8325C62.3141 55.0176 59.1138 53.9613 58.9204 51.1018C58.8463 50.0092 58.8382 48.5912 58.8963 46.8476C58.8995 46.7509 58.8568 46.6824 58.7681 46.6421C58.5603 46.5471 58.3363 46.4866 58.0962 46.4609C57.9479 46.4464 57.873 46.365 57.8714 46.2167L57.8569 45.158C57.8565 45.1299 57.8618 45.1019 57.8724 45.0759C57.8829 45.0498 57.8985 45.026 57.9183 45.006C57.9381 44.986 57.9617 44.9701 57.9876 44.9593C58.0136 44.9485 58.0414 44.9429 58.0696 44.9429L61.1104 44.9453C61.2054 44.9453 61.2522 44.992 61.2506 45.0855C61.2361 46.9596 61.2393 48.7572 61.2602 50.4782C61.2675 51.0728 61.3956 51.8632 62.0893 52.0227C62.8225 52.1919 63.4687 52.0485 64.0279 51.5925C64.0723 51.5571 64.1083 51.512 64.133 51.4606C64.1576 51.4091 64.1705 51.3525 64.1705 51.2952L64.1729 46.8113C64.1729 46.705 64.1213 46.6389 64.0182 46.6131L63.3898 46.456C63.3295 46.4406 63.2761 46.406 63.2376 46.3575C63.1992 46.309 63.1779 46.2493 63.177 46.1877L63.1577 45.1387C63.1561 45.0098 63.2189 44.9453 63.3462 44.9453L66.3774 44.9429C66.4261 44.9429 66.4728 44.962 66.5073 44.996C66.5417 45.03 66.5611 45.0761 66.5611 45.1242L66.5586 51.9551C66.5586 52.0807 66.6199 52.1573 66.7423 52.1847L67.3853 52.3273C67.4465 52.3409 67.5013 52.3749 67.5408 52.4236C67.5803 52.4723 67.6022 52.5329 67.6029 52.5956L67.6174 53.5214C67.619 53.7002 67.5303 53.7897 67.3515 53.7897L64.6612 53.7945C64.6125 53.7946 64.5653 53.7774 64.5282 53.746C64.491 53.7145 64.4662 53.6709 64.4581 53.6229L64.3373 52.876Z" fill="#EDEDED"/>
<path d="M129.559 52.8687C129.54 52.7092 129.479 52.6915 129.376 52.8156C128.368 54.0338 126.731 54.3867 125.397 53.5045C124.179 52.702 124.036 51.3193 124.044 49.9537C124.05 48.9207 124.055 47.8685 124.058 46.7968C124.058 46.7545 124.044 46.7133 124.018 46.6797C123.992 46.6461 123.956 46.6218 123.915 46.6107L123.282 46.4367C123.158 46.4012 123.095 46.319 123.094 46.1901L123.091 45.1725C123.09 45.021 123.165 44.9453 123.318 44.9453H126.32C126.338 44.9453 126.355 44.9487 126.37 44.9554C126.386 44.9621 126.401 44.9719 126.413 44.9842C126.425 44.9966 126.435 45.0112 126.441 45.0274C126.448 45.0435 126.451 45.0608 126.451 45.0782C126.43 47.0297 126.435 48.9215 126.466 50.7537C126.492 52.4312 128.392 52.3877 129.238 51.5586C129.273 51.5241 129.301 51.4833 129.32 51.4384C129.339 51.3936 129.349 51.3457 129.349 51.2976L129.356 46.7872C129.358 46.6744 129.304 46.6067 129.194 46.5841L128.564 46.4488C128.402 46.4149 128.322 46.3166 128.322 46.1539L128.317 45.1894C128.317 45.0283 128.398 44.9477 128.559 44.9477L131.638 44.9453C131.717 44.9453 131.757 44.984 131.757 45.0613L131.754 51.9478C131.754 52.0719 131.815 52.1484 131.938 52.1774L132.68 52.3418C132.801 52.3692 132.861 52.4449 132.861 52.569L132.859 53.5939C132.857 53.7228 132.792 53.7873 132.663 53.7873L129.83 53.8018C129.786 53.8017 129.744 53.7859 129.711 53.7574C129.678 53.7289 129.657 53.6897 129.651 53.6471L129.559 52.8687Z" fill="#EDEDED"/>
<path d="M137.316 52.1653L138.266 52.3442C138.298 52.3503 138.327 52.3674 138.349 52.3925C138.37 52.4176 138.382 52.4492 138.382 52.482L138.394 53.6495C138.395 53.6684 138.391 53.6872 138.384 53.7048C138.377 53.7224 138.367 53.7384 138.353 53.7519C138.34 53.7654 138.324 53.7761 138.307 53.7834C138.289 53.7907 138.271 53.7945 138.252 53.7945L133.823 53.7897C133.786 53.7897 133.749 53.7747 133.722 53.7479C133.696 53.7212 133.681 53.6849 133.681 53.6471L133.686 52.4917C133.686 52.4592 133.697 52.4278 133.718 52.4028C133.739 52.3777 133.767 52.3605 133.799 52.3539L134.735 52.1653C134.767 52.1592 134.796 52.1422 134.817 52.1171C134.838 52.092 134.85 52.0604 134.851 52.0276L134.846 46.7606C134.846 46.7274 134.834 46.6952 134.813 46.6696C134.792 46.644 134.762 46.6266 134.73 46.6204L133.693 46.4343C133.66 46.4281 133.631 46.4107 133.61 46.3851C133.588 46.3595 133.577 46.3273 133.577 46.2941L133.572 45.0855C133.572 45.0477 133.587 45.0114 133.614 44.9846C133.64 44.9579 133.677 44.9429 133.715 44.9429L137.058 44.9453C137.095 44.9453 137.132 44.9603 137.158 44.9871C137.185 45.0138 137.2 45.0501 137.2 45.0879V52.0252C137.2 52.0584 137.212 52.0906 137.233 52.1162C137.254 52.1418 137.283 52.1592 137.316 52.1653Z" fill="#EDEDED"/>
</svg>
