<?xml version="1.0" encoding="UTF-8"?>
<svg id="Layer_1" data-name="Layer 1" xmlns="http://www.w3.org/2000/svg" viewBox="0 0 80 80">
  <defs>
    <style>
      .cls-1 {
        stroke: #ededed;
      }

      .cls-1, .cls-2 {
        fill: none;
        stroke-linecap: round;
        stroke-linejoin: round;
      }

      .cls-2 {
        stroke: #007bff;
      }
    </style>
  </defs>
  <path class="cls-2" d="m32.66,64.09v6.65l17.6-4.37v-3.79c0-3.19.7-6.36,2.06-9.25l.02-.05s2.61-4.52,3.57-9.73"/>
  <path class="cls-2" d="m24.37,30.64c-2.14,2.64-3.54,5.89-3.91,9.47l-3.93,11.76c-.14.44.19.9.65.9h4.62v8.4c0,2.07,1.76,3.69,3.82,3.52l7.03-.61,3.74-.32"/>
  <path class="cls-2" d="m48.11,26.67c-2.3-1.37-4.91-2.29-7.6-2.6"/>
  <path class="cls-1" d="m59.93,32.41s0-.01,0-.02c0-2.3-1.86-4.16-4.16-4.16-1.52,0-2.84.83-3.57,2.05-.54-.25-1.13-.4-1.76-.4-2.2,0-3.98,1.71-4.13,3.87-1.6.13-2.87,1.46-2.87,3.1,0,1.73,1.4,3.13,3.13,3.13h13.15c2.09,0,3.79-1.7,3.79-3.79s-1.58-3.65-3.57-3.77Z"/>
  <path class="cls-1" d="m36.7,21.57s0-.02,0-.03c0-2.76-2.24-5-5-5-1.83,0-3.41.99-4.28,2.46-.64-.3-1.36-.49-2.12-.49-2.64,0-4.78,2.05-4.96,4.65-1.93.16-3.44,1.76-3.44,3.72,0,2.07,1.68,3.75,3.75,3.75h15.79c2.51,0,4.55-2.04,4.55-4.55s-1.9-4.39-4.29-4.52Z"/>
  <g>
    <circle class="cls-1" cx="49.9" cy="15.92" r="3.62"/>
    <line class="cls-1" x1="49.9" y1="10.25" x2="49.9" y2="9.27"/>
    <line class="cls-1" x1="45.89" y1="11.91" x2="45.19" y2="11.21"/>
    <line class="cls-1" x1="44.23" y1="15.92" x2="43.24" y2="15.92"/>
    <line class="cls-1" x1="45.89" y1="19.93" x2="45.19" y2="20.63"/>
    <line class="cls-1" x1="49.9" y1="21.6" x2="49.9" y2="22.58"/>
    <line class="cls-1" x1="53.91" y1="19.93" x2="54.61" y2="20.63"/>
    <line class="cls-1" x1="55.58" y1="15.92" x2="56.56" y2="15.92"/>
    <line class="cls-1" x1="53.91" y1="11.91" x2="54.61" y2="11.21"/>
  </g>
  <path class="cls-2" d="m21.81,57.49c.32,0,2.62.22,4.47-1.2"/>
  <path class="cls-2" d="m27.41,42.99s.69,1.74,2.22,1.74c2.03,0,2.48-1.74,2.48-1.74"/>
</svg>