<?xml version="1.0" encoding="UTF-8"?>
<svg id="Layer_1" data-name="Layer 1" xmlns="http://www.w3.org/2000/svg" viewBox="0 0 80 80">
  <defs>
    <style>
      .cls-1 {
        stroke: #ededed;
      }

      .cls-1, .cls-2 {
        fill: none;
        stroke-linecap: round;
        stroke-linejoin: round;
      }

      .cls-2 {
        stroke: #007bff;
      }
    </style>
  </defs>
  <path class="cls-2" d="m55.02,52.83l.41.41c2.5,2.5.73,6.77-2.81,6.77H15.91"/>
  <polyline class="cls-2" points="56.74 30.25 59.02 20.53 65.5 20.53"/>
  <g>
    <polygon class="cls-2" points="25.21 67.46 22.48 67.46 20.6 60.01 27.09 60.01 25.21 67.46"/>
    <path class="cls-2" d="m26.39,62.75c1.25.82,2.07,2.24,2.07,3.84,0,2.56-2.07,4.62-4.62,4.62s-4.62-2.06-4.62-4.62c0-1.6.82-3.02,2.06-3.84"/>
    <circle class="cls-2" cx="23.85" cy="65.75" r=".13"/>
  </g>
  <g>
    <polygon class="cls-2" points="51.34 67.46 48.61 67.46 46.72 60.01 53.22 60.01 51.34 67.46"/>
    <path class="cls-2" d="m52.52,62.75c1.25.82,2.07,2.24,2.07,3.84,0,2.56-2.07,4.62-4.62,4.62s-4.62-2.06-4.62-4.62c0-1.6.82-3.02,2.06-3.84"/>
    <circle class="cls-2" cx="49.97" cy="65.75" r=".13"/>
  </g>
  <g>
    <polygon class="cls-1" points="47.98 15.68 36.12 22.57 24.26 15.68 36.12 8.79 47.98 15.68"/>
    <line class="cls-1" x1="47.97" y1="26.01" x2="47.97" y2="15.68"/>
    <line class="cls-1" x1="24.25" y1="26.01" x2="24.25" y2="15.68"/>
    <line class="cls-1" x1="36.12" y1="26.01" x2="36.12" y2="22.56"/>
    <polyline class="cls-1" points="42.05 12.24 29.97 19 29.97 21.27"/>
  </g>
  <circle class="cls-1" cx="54.02" cy="41.4" r="8.36"/>
  <line class="cls-2" x1="15.9" y1="29.92" x2="28.97" y2="29.92"/>
  <line class="cls-2" x1="17.63" y1="35.05" x2="30.69" y2="35.05"/>
  <line class="cls-2" x1="19.35" y1="40.18" x2="32.41" y2="40.18"/>
  <line class="cls-2" x1="21.07" y1="45.31" x2="34.13" y2="45.31"/>
  <polyline class="cls-1" points="49.63 42.23 52.01 44.6 58.41 38.2"/>
  <polyline class="cls-2" points="57.74 26.01 47.97 26.01 36.12 26.01 24.25 26.01 14.5 26.01 22.28 49.58 45.97 49.58"/>
</svg>