<svg width="80" height="80" viewBox="0 0 80 80" fill="none" xmlns="http://www.w3.org/2000/svg">
<path d="M51.76 29.54C54.8031 29.54 57.27 27.0731 57.27 24.03C57.27 20.9869 54.8031 18.52 51.76 18.52C48.7169 18.52 46.25 20.9869 46.25 24.03C46.25 27.0731 48.7169 29.54 51.76 29.54Z" stroke="#007BFF" stroke-linecap="round" stroke-linejoin="round"/>
<path d="M48.31 19.73L35.5 20.3C33.87 20.37 33 22.25 34 23.54L42.42 34.46" stroke="#007BFF" stroke-linecap="round" stroke-linejoin="round"/>
<path d="M46.25 24.03L39.98 24.69L45.44 31.29" stroke="#007BFF" stroke-linecap="round" stroke-linejoin="round"/>
<path d="M49.88 51.0099L53.01 37.6599C53.58 35.2299 52.44 32.7299 50.23 31.5599C47.12 29.9199 43.29 31.5999 42.39 34.9999L38.91 48.1299L30.77 45.6299C28.9 45.0499 26.87 45.8099 25.83 47.4699L17.53 60.7599C16.52 62.3699 17.28 64.5099 19.08 65.1199C20.38 65.5699 21.82 65.0599 22.55 63.8899L30.26 51.5599L42.17 55.8799L44.29 55.7399C47 55.5599 49.28 53.6399 49.9 50.9899L49.88 51.0099Z" stroke="#007BFF" stroke-linecap="round" stroke-linejoin="round"/>
<path d="M56.0102 27.76L60.7402 32.8L52.4902 33.8" stroke="#007BFF" stroke-linecap="round" stroke-linejoin="round"/>
<path d="M57.0301 22.4299L66.7201 33.0699C68.2601 34.7699 67.1401 37.4899 64.8501 37.5999L52.8901 38.1699" stroke="#007BFF" stroke-linecap="round" stroke-linejoin="round"/>
<path d="M31.1599 52.25V68.07C31.1599 69.66 29.8699 70.94 28.2899 70.94C26.6999 70.94 25.4199 69.65 25.4199 68.07V59.59" stroke="#007BFF" stroke-linecap="round" stroke-linejoin="round"/>
<path d="M57.4802 38.1799L53.0502 58.2299C52.7202 59.7199 51.4002 60.7799 49.8802 60.7799H31.1602" stroke="#007BFF" stroke-linecap="round" stroke-linejoin="round"/>
<path d="M42.1502 55.8999C41.4002 55.7999 31.1602 55.8999 31.1602 55.8999" stroke="#007BFF" stroke-linecap="round" stroke-linejoin="round"/>
<path d="M47.7098 70.94L45.7998 60.78H50.5798L48.6598 70.94" stroke="#007BFF" stroke-linecap="round" stroke-linejoin="round"/>
<path d="M30.6901 18.1201H29.1901M21.6201 27.1801C26.6238 27.1801 30.6801 23.1238 30.6801 18.1201C30.6801 13.1164 26.6238 9.06006 21.6201 9.06006M21.6201 27.1801C16.6164 27.1801 12.5601 23.1238 12.5601 18.1201M21.6201 27.1801V25.6801M12.5601 18.1201C12.5601 13.1164 16.6164 9.06006 21.6201 9.06006M12.5601 18.1201H14.0601M21.6201 9.06006V10.5601M15.2201 11.7101L16.2801 12.7701M15.2201 24.5301L16.2801 23.4701M28.0301 24.5301L26.9701 23.4701M28.0301 11.7101L26.9701 12.7701M21.6201 12.5201V18.1201L18.6201 19.9201M22.1101 18.1201C22.1101 18.3907 21.8907 18.6101 21.6201 18.6101C21.3494 18.6101 21.1301 18.3907 21.1301 18.1201C21.1301 17.8494 21.3494 17.6301 21.6201 17.6301C21.8907 17.6301 22.1101 17.8494 22.1101 18.1201Z" stroke="#EDEDED" stroke-linecap="round" stroke-linejoin="round"/>
</svg>
