<?xml version="1.0" encoding="UTF-8"?>
<svg id="Layer_1" data-name="Layer 1" xmlns="http://www.w3.org/2000/svg" viewBox="0 0 80 80">
  <defs>
    <style>
      .cls-1 {
        stroke: #ededed;
      }

      .cls-1, .cls-2 {
        fill: none;
        stroke-linecap: round;
        stroke-linejoin: round;
      }

      .cls-2 {
        stroke: #007bff;
      }
    </style>
  </defs>
  <circle class="cls-2" cx="51.76" cy="24.03" r="5.51"/>
  <path class="cls-2" d="m48.31,19.73l-12.81.57c-1.63.07-2.5,1.95-1.5,3.24l8.42,10.92"/>
  <polyline class="cls-2" points="46.25 24.03 39.98 24.69 45.44 31.29"/>
  <path class="cls-2" d="m49.88,51.01l3.13-13.35c.57-2.43-.57-4.93-2.78-6.1h0c-3.11-1.64-6.94.04-7.84,3.44l-3.48,13.13-8.14-2.5c-1.87-.58-3.9.18-4.94,1.84l-8.3,13.29c-1.01,1.61-.25,3.75,1.55,4.36h0c1.3.45,2.74-.06,3.47-1.23l7.71-12.33,11.91,4.32,2.12-.14c2.71-.18,4.99-2.1,5.61-4.75Z"/>
  <polyline class="cls-2" points="56.01 27.76 60.74 32.8 52.49 33.8"/>
  <path class="cls-2" d="m57.03,22.43l9.69,10.64c1.54,1.7.42,4.42-1.87,4.53l-11.96.57"/>
  <path class="cls-2" d="m31.16,52.25v15.82c0,1.59-1.29,2.87-2.87,2.87h0c-1.59,0-2.87-1.29-2.87-2.87v-8.48"/>
  <path class="cls-2" d="m57.48,38.18l-4.43,20.05c-.33,1.49-1.65,2.55-3.17,2.55h-18.72"/>
  <path class="cls-2" d="m42.15,55.9c-.75-.1-10.99,0-10.99,0"/>
  <polyline class="cls-2" points="47.71 70.94 45.8 60.78 50.58 60.78 48.66 70.94"/>
  <g>
    <line class="cls-1" x1="30.69" y1="18.12" x2="29.19" y2="18.12"/>
    <g>
      <circle class="cls-1" cx="21.62" cy="18.12" r="9.06"/>
      <circle class="cls-1" cx="21.62" cy="18.12" r=".49"/>
      <line class="cls-1" x1="21.62" y1="9.06" x2="21.62" y2="10.56"/>
      <line class="cls-1" x1="15.22" y1="11.71" x2="16.28" y2="12.77"/>
      <line class="cls-1" x1="12.56" y1="18.12" x2="14.06" y2="18.12"/>
      <line class="cls-1" x1="15.22" y1="24.53" x2="16.28" y2="23.47"/>
      <line class="cls-1" x1="21.62" y1="27.18" x2="21.62" y2="25.68"/>
      <line class="cls-1" x1="28.03" y1="24.53" x2="26.97" y2="23.47"/>
      <line class="cls-1" x1="28.03" y1="11.71" x2="26.97" y2="12.77"/>
      <polyline class="cls-1" points="21.62 12.52 21.62 18.12 18.62 19.92"/>
    </g>
  </g>
</svg>