<?xml version="1.0" encoding="UTF-8"?>
<svg id="Layer_1" data-name="Layer 1" xmlns="http://www.w3.org/2000/svg" viewBox="0 0 80 80">
  <defs>
    <style>
      .cls-1 {
        stroke: #ededed;
      }

      .cls-1, .cls-2 {
        fill: none;
        stroke-linecap: round;
        stroke-linejoin: round;
      }

      .cls-2 {
        stroke: #007bff;
      }
    </style>
  </defs>
  <g>
    <path class="cls-2" d="m24.31,63.39v-1.64c0-.31-.14-.6-.37-.79l-11.57-9.59c-1.18-.97-1.86-2.42-1.86-3.95v-23.63c0-1.35,1.1-2.45,2.45-2.45h0c1.22,0,2.25.89,2.42,2.09l2.47,16.88"/>
    <path class="cls-2" d="m36.31,63.39v-7c0-2.17-.99-4.22-2.69-5.56l-12.79-10.13c-1.03-.82-2.52-.7-3.4.28h0c-.94,1.03-.85,2.63.19,3.56l6.69,5.91"/>
    <polyline class="cls-2" points="36.93 68.71 36.93 63.39 21.19 63.39 21.19 68.71"/>
  </g>
  <g>
    <path class="cls-2" d="m55.69,63.39v-1.64c0-.31.14-.6.37-.79l11.57-9.59c1.18-.97,1.86-2.42,1.86-3.95v-23.63c0-1.35-1.1-2.45-2.45-2.45h0c-1.22,0-2.25.89-2.42,2.09l-2.47,16.88"/>
    <path class="cls-2" d="m43.69,63.39v-7c0-2.17.99-4.22,2.69-5.56l12.79-10.13c1.03-.82,2.52-.7,3.4.28h0c.94,1.03.85,2.63-.19,3.56l-6.69,5.91"/>
    <polyline class="cls-2" points="43.07 68.71 43.07 63.39 58.81 63.39 58.81 68.71"/>
  </g>
  <g>
    <line class="cls-1" x1="54.44" y1="25.73" x2="52.05" y2="25.73"/>
    <g>
      <circle class="cls-1" cx="40" cy="25.73" r="14.44"/>
      <circle class="cls-1" cx="40" cy="25.73" r=".78"/>
      <line class="cls-1" x1="40" y1="11.29" x2="40" y2="13.67"/>
      <line class="cls-1" x1="29.79" y1="15.52" x2="31.48" y2="17.2"/>
      <line class="cls-1" x1="25.56" y1="25.73" x2="27.95" y2="25.73"/>
      <line class="cls-1" x1="29.79" y1="35.93" x2="31.48" y2="34.25"/>
      <line class="cls-1" x1="40" y1="40.16" x2="40" y2="37.78"/>
      <line class="cls-1" x1="50.21" y1="35.93" x2="48.52" y2="34.25"/>
      <line class="cls-1" x1="50.21" y1="15.52" x2="48.52" y2="17.2"/>
      <polyline class="cls-1" points="40 16.8 40 25.73 45.02 30.74"/>
    </g>
  </g>
</svg>