<svg width="80" height="80" viewBox="0 0 80 80" fill="none" xmlns="http://www.w3.org/2000/svg">
<path d="M24.3098 63.3901V61.7501C24.3098 61.4401 24.1698 61.1501 23.9398 60.9601L12.3698 51.3701C11.1898 50.4001 10.5098 48.9501 10.5098 47.4201V23.7901C10.5098 22.4401 11.6098 21.3401 12.9598 21.3401C14.1798 21.3401 15.2098 22.2301 15.3798 23.4301L17.8498 40.3101M36.3098 63.3901V56.3901C36.3098 54.2201 35.3198 52.1701 33.6198 50.8301L20.8298 40.7001C19.7998 39.8801 18.3098 40.0001 17.4298 40.9801C16.4898 42.0101 16.5798 43.6101 17.6198 44.5401L24.3098 50.4501M36.9298 68.7101V63.3901H21.1898V68.7101" stroke="#007BFF" stroke-linecap="round" stroke-linejoin="round"/>
<path d="M55.6898 63.3901V61.7501C55.6898 61.4401 55.8298 61.1501 56.0598 60.9601L67.6298 51.3701C68.8098 50.4001 69.4898 48.9501 69.4898 47.4201V23.7901C69.4898 22.4401 68.3898 21.3401 67.0398 21.3401C65.8198 21.3401 64.7898 22.2301 64.6198 23.4301L62.1498 40.3101M43.6898 63.3901V56.3901C43.6898 54.2201 44.6798 52.1701 46.3798 50.8301L59.1698 40.7001C60.1998 39.8801 61.6898 40.0001 62.5698 40.9801C63.5098 42.0101 63.4198 43.6101 62.3798 44.5401L55.6898 50.4501M43.0698 68.7101V63.3901H58.8098V68.7101" stroke="#007BFF" stroke-linecap="round" stroke-linejoin="round"/>
<path d="M54.4403 25.73H52.0503M54.4403 25.73C54.4403 33.705 47.9751 40.17 40.0001 40.17C32.0251 40.17 25.5601 33.705 25.5601 25.73M54.4403 25.73C54.4403 17.755 47.9751 11.29 40.0001 11.29M25.5601 25.73C25.5601 17.755 32.0251 11.29 40.0001 11.29M25.5601 25.73H27.9501M40.0001 11.29V13.67M29.7901 15.52L31.4801 17.2M29.7901 35.93L31.4801 34.25M40.0001 40.16V37.78M50.2101 35.93L48.5201 34.25M50.2101 15.52L48.5201 17.2M40.0001 16.8V25.73L45.0201 30.74M40.7801 25.73C40.7801 26.1608 40.4308 26.51 40.0001 26.51C39.5693 26.51 39.2201 26.1608 39.2201 25.73C39.2201 25.2993 39.5693 24.95 40.0001 24.95C40.4308 24.95 40.7801 25.2993 40.7801 25.73Z" stroke="#EDEDED" stroke-linecap="round" stroke-linejoin="round"/>
</svg>
