<svg width="80" height="80" viewBox="0 0 80 80" fill="none" xmlns="http://www.w3.org/2000/svg">
<path d="M59.72 44.4299V60.3899C59.72 61.2499 59.03 61.9599 58.16 61.9599H10.07C9.21 61.9599 8.5 61.2599 8.5 60.3899V26.2299C8.5 25.3699 9.2 24.6599 10.07 24.6599H46.06M45.15 30.8499H8.5" stroke="#007BFF" stroke-linecap="round" stroke-linejoin="round"/>
<path d="M12.8998 28.0799C13.0821 28.0799 13.2298 27.9322 13.2298 27.7499C13.2298 27.5677 13.0821 27.4199 12.8998 27.4199C12.7176 27.4199 12.5698 27.5677 12.5698 27.7499C12.5698 27.9322 12.7176 28.0799 12.8998 28.0799Z" stroke="#007BFF" stroke-linecap="round" stroke-linejoin="round"/>
<path d="M15.6 28.0799C15.7823 28.0799 15.93 27.9322 15.93 27.7499C15.93 27.5677 15.7823 27.4199 15.6 27.4199C15.4178 27.4199 15.27 27.5677 15.27 27.7499C15.27 27.9322 15.4178 28.0799 15.6 28.0799Z" stroke="#007BFF" stroke-linecap="round" stroke-linejoin="round"/>
<path d="M18.31 28.0799C18.4922 28.0799 18.64 27.9322 18.64 27.7499C18.64 27.5677 18.4922 27.4199 18.31 27.4199C18.1277 27.4199 17.98 27.5677 17.98 27.7499C17.98 27.9322 18.1277 28.0799 18.31 28.0799Z" stroke="#007BFF" stroke-linecap="round" stroke-linejoin="round"/>
<path d="M24.2302 47.8501C25.8402 43.9501 29.9302 41.3101 34.1102 41.4901C34.2302 41.4901 34.2402 41.6901 34.1102 41.6901C30.1402 41.7801 26.4202 44.4801 25.1602 48.2101C24.9302 48.8501 23.9602 48.4701 24.2302 47.8501Z" fill="#007BFF"/>
<path d="M21.7402 51.6801C21.7402 44.8501 27.2802 39.3101 34.1102 39.3101C40.9402 39.3101 46.4802 44.8501 46.4802 51.6801" stroke="#007BFF" stroke-linecap="round" stroke-linejoin="round"/>
<path d="M34.3303 51.7601C34.7831 51.7601 35.1503 51.393 35.1503 50.9401C35.1503 50.4872 34.7831 50.1201 34.3303 50.1201C33.8774 50.1201 33.5103 50.4872 33.5103 50.9401C33.5103 51.393 33.8774 51.7601 34.3303 51.7601Z" stroke="#007BFF" stroke-linecap="round" stroke-linejoin="round"/>
<path d="M33.9803 50.5902L41.2203 43.9502C41.2903 43.8802 41.4003 43.9902 41.3303 44.0602L34.6903 51.3002C34.2303 51.8002 33.4803 51.0602 33.9803 50.5902Z" fill="#007BFF"/>
<path d="M59.73 41.58C66.2304 41.58 71.5 36.3104 71.5 29.81C71.5 23.3096 66.2304 18.04 59.73 18.04C53.2296 18.04 47.96 23.3096 47.96 29.81C47.96 36.3104 53.2296 41.58 59.73 41.58Z" stroke="#EDEDED" stroke-linecap="round" stroke-linejoin="round"/>
<path d="M51.8101 27.4302L53.7201 26.4502V33.1802" stroke="#EDEDED" stroke-linecap="round" stroke-linejoin="round"/>
<path d="M52.1299 33.1802H55.1499" stroke="#EDEDED" stroke-linecap="round" stroke-linejoin="round"/>
<path d="M61.3301 28.3101C61.3301 27.2166 60.4436 26.3301 59.3501 26.3301C58.2566 26.3301 57.3701 27.2166 57.3701 28.3101V31.3201C57.3701 32.4136 58.2566 33.3001 59.3501 33.3001C60.4436 33.3001 61.3301 32.4136 61.3301 31.3201V28.3101Z" stroke="#EDEDED" stroke-linecap="round" stroke-linejoin="round"/>
<path d="M61.2101 27.6301L57.6201 32.2801" stroke="#EDEDED" stroke-width="0.5" stroke-linecap="round" stroke-linejoin="round"/>
<path d="M67.6402 28.3101C67.6402 27.2166 66.7537 26.3301 65.6602 26.3301C64.5667 26.3301 63.6802 27.2166 63.6802 28.3101V31.3201C63.6802 32.4136 64.5667 33.3001 65.6602 33.3001C66.7537 33.3001 67.6402 32.4136 67.6402 31.3201V28.3101Z" stroke="#EDEDED" stroke-linecap="round" stroke-linejoin="round"/>
<path d="M67.5202 27.6301L63.9302 32.2801" stroke="#EDEDED" stroke-width="0.5" stroke-linecap="round" stroke-linejoin="round"/>
<path d="M51.3397 55.6401H56.4897M51.3397 57.8801H54.5897M11.7397 34.8101H16.8797M11.7397 37.0501H14.9797" stroke="#007BFF" stroke-linecap="round" stroke-linejoin="round"/>
</svg>
