<svg width="61" height="70" viewBox="0 0 61 70" fill="none" xmlns="http://www.w3.org/2000/svg">
<path d="M37.5396 55.9716C37.3443 56.1669 37.3443 56.4834 37.5396 56.6787C37.7348 56.874 38.0514 56.874 38.2467 56.6787L37.5396 55.9716ZM56.8931 37.3252L56.5396 36.9716L56.5396 36.9716L56.8931 37.3252ZM48.3931 30.3252L48.0396 29.9716L48.0396 29.9716L48.3931 30.3252ZM10.8931 67.8252L10.5396 67.4716L10.5395 67.4717L10.8931 67.8252ZM2.39311 58.8252L2.04223 58.469L2.03963 58.4716L2.39311 58.8252ZM9.85086 52.1814C10.0476 51.9876 10.05 51.6711 9.85622 51.4743C9.66245 51.2776 9.34587 51.2752 9.14914 51.469L9.85086 52.1814ZM38.2467 56.6787L57.2467 37.6787L56.5396 36.9716L37.5396 55.9716L38.2467 56.6787ZM57.2467 37.6787C57.8721 37.0535 58.3448 35.7539 58.3182 34.3407C58.2909 32.8933 57.7415 31.2508 56.2187 29.9455L55.5679 30.7048C56.8451 31.7995 57.2957 33.157 57.3184 34.3596C57.3417 35.5965 56.9144 36.5969 56.5396 36.9716L57.2467 37.6787ZM56.2187 29.9455C54.688 28.6335 52.9117 28.3658 51.4062 28.554C49.925 28.7392 48.6368 29.3745 48.0396 29.9716L48.7467 30.6787C49.1496 30.2758 50.2115 29.7112 51.5303 29.5463C52.8249 29.3845 54.2986 29.6168 55.5679 30.7048L56.2187 29.9455ZM48.0396 29.9716L10.5396 67.4716L11.2467 68.1787L48.7467 30.6787L48.0396 29.9716ZM10.5395 67.4717C10.1211 67.8901 9.37621 68.3441 8.28816 68.3006C7.1928 68.2568 5.67426 67.7055 3.72759 65.9535L3.05862 66.6968C5.11195 68.5448 6.8435 69.2436 8.24819 69.2998C9.66018 69.3563 10.6652 68.7603 11.2467 68.1787L10.5395 67.4717ZM3.72759 65.9535C1.8138 64.2311 1.40952 62.7522 1.51565 61.648C1.62494 60.5109 2.28711 59.6381 2.74658 59.1788L2.03963 58.4716C1.49866 59.0123 0.660826 60.0895 0.520232 61.5523C0.376467 63.0482 0.97241 64.8192 3.05862 66.6968L3.72759 65.9535ZM2.74397 59.1814L9.85086 52.1814L9.14914 51.469L2.04224 58.469L2.74397 59.1814Z" fill="#007BFF"/>
<path d="M60.3932 1L60.764 1.33537C60.9422 1.13832 60.9352 0.836322 60.748 0.647765C60.5609 0.459207 60.2589 0.449942 60.0605 0.62667L60.3932 1ZM8.02229 58.1646C7.83707 58.3694 7.85295 58.6856 8.05777 58.8708C8.26258 59.0561 8.57876 59.0402 8.76398 58.8354L8.02229 58.1646ZM4.35355 55.1464C4.08419 54.8771 3.8467 54.6586 3.62711 54.4187C3.4129 54.1846 3.26407 53.9794 3.18368 53.7844C3.10919 53.6038 3.09107 53.4275 3.15156 53.2232C3.21609 53.0052 3.38153 52.7185 3.7465 52.3536L3.03943 51.6464C2.60432 52.0815 2.32061 52.5073 2.1927 52.9393C2.06074 53.385 2.10689 53.7962 2.25918 54.1656C2.40556 54.5206 2.64602 54.8279 2.88941 55.0938C3.12741 55.3539 3.41581 55.6229 3.64645 55.8536L4.35355 55.1464ZM3.7465 52.3536C5.33308 50.7671 42.3796 17.7181 60.7258 1.37333L60.0605 0.62667C41.74 16.9486 4.65312 50.0329 3.03943 51.6464L3.7465 52.3536ZM60.0223 0.664628L8.02229 58.1646L8.76398 58.8354L60.764 1.33537L60.0223 0.664628Z" fill="#262626"/>
</svg>
